<?xml version="1.0" encoding="UTF-8" standalone="no"?>
<!-- Created with Inkscape (http://www.inkscape.org/) -->

<svg
   xmlns:dc="http://purl.org/dc/elements/1.1/"
   xmlns:cc="http://creativecommons.org/ns#"
   xmlns:rdf="http://www.w3.org/1999/02/22-rdf-syntax-ns#"
   xmlns:svg="http://www.w3.org/2000/svg"
   xmlns="http://www.w3.org/2000/svg"
   xmlns:sodipodi="http://sodipodi.sourceforge.net/DTD/sodipodi-0.dtd"
   xmlns:inkscape="http://www.inkscape.org/namespaces/inkscape"
   width="900"
   height="300"
   id="svg6345"
   version="1.1"
   inkscape:version="0.48.4 r9939"
   sodipodi:docname="byobu-tshirt.svg"
   inkscape:export-filename="/tmp/byobu-tshirt.png"
   inkscape:export-xdpi="299.96957"
   inkscape:export-ydpi="299.96957">
  <defs
     id="defs6347">
    <inkscape:perspective
       sodipodi:type="inkscape:persp3d"
       inkscape:vp_x="0 : 384 : 1"
       inkscape:vp_y="0 : 1000 : 0"
       inkscape:vp_z="1024 : 384 : 1"
       inkscape:persp3d-origin="512 : 256 : 1"
       id="perspective6353" />
    <inkscape:perspective
       id="perspective6363"
       inkscape:persp3d-origin="0.5 : 0.33333333 : 1"
       inkscape:vp_z="1 : 0.5 : 1"
       inkscape:vp_y="0 : 1000 : 0"
       inkscape:vp_x="0 : 0.5 : 1"
       sodipodi:type="inkscape:persp3d" />
  </defs>
  <sodipodi:namedview
     id="base"
     pagecolor="#ffffff"
     bordercolor="#666666"
     borderopacity="1.0"
     inkscape:pageopacity="0.0"
     inkscape:pageshadow="2"
     inkscape:zoom="1.4142136"
     inkscape:cx="440.42353"
     inkscape:cy="169.95817"
     inkscape:current-layer="layer1"
     inkscape:document-units="px"
     showgrid="false"
     inkscape:window-width="1871"
     inkscape:window-height="1056"
     inkscape:window-x="49"
     inkscape:window-y="24"
     inkscape:window-maximized="1" />
  <metadata
     id="metadata6350">
    <rdf:RDF>
      <cc:Work
         rdf:about="">
        <dc:format>image/svg+xml</dc:format>
        <dc:type
           rdf:resource="http://purl.org/dc/dcmitype/StillImage" />
        <dc:title></dc:title>
      </cc:Work>
    </rdf:RDF>
  </metadata>
  <g
     id="layer1"
     inkscape:label="Layer 1"
     inkscape:groupmode="layer"
     transform="translate(0,-468)">
    <path
       style="fill:#ffcca3;fill-opacity:0.75;stroke:#000000;stroke-width:0.34554926px;stroke-linecap:butt;stroke-linejoin:miter;stroke-opacity:1"
       d="m 72.345723,532.62779 1.440674,142.88233"
       id="path4136"
       inkscape:connector-curvature="0" />
    <path
       style="fill:none;stroke:#000000;stroke-width:0.34554926px;stroke-linecap:butt;stroke-linejoin:miter;stroke-opacity:1"
       d="m 71.985554,532.94817 1.800843,143.20266 51.866843,-5.4462 48.26516,7.04801 46.82448,-3.20362 2.16101,-139.67867 -46.10377,-3.84437 -51.86721,7.36837 -52.947356,-5.44618 z"
       id="path4158"
       inkscape:connector-curvature="0" />
    <path
       style="fill:#ffcca3;fill-opacity:0.75;stroke:#000000;stroke-width:0.34554926px;stroke-linecap:butt;stroke-linejoin:miter;stroke-opacity:1"
       d="m 124.93291,538.39435 0,132.63066 0,0"
       id="path4162"
       inkscape:connector-curvature="0" />
    <path
       style="fill:#ffcca3;fill-opacity:0.15306121;stroke:#000000;stroke-width:0.34554926px;stroke-linecap:butt;stroke-linejoin:miter;stroke-opacity:1"
       d="m 176.80012,530.70561 0,146.40631"
       id="path4164"
       inkscape:connector-curvature="0" />
    <path
       style="fill:#f4bd71;fill-opacity:0.11224491;stroke:none"
       d="m 177.00713,604.23949 0,-72.96431 0.99038,0.15174 c 0.54484,0.0834 10.71198,0.95359 22.59352,1.93364 11.8819,0.98004 21.67607,1.84665 21.76512,1.9258 0.2898,0.25798 -1.94046,138.47581 -2.23907,138.74131 -0.15938,0.14187 -9.92423,0.91454 -21.69987,1.71705 l -21.41008,1.45909 0,-72.96432 z"
       id="path4166"
       inkscape:connector-curvature="0" />
    <path
       style="fill:#f4bd71;fill-opacity:0.11224491;stroke:none"
       d="m 177.00713,604.23949 0,-72.96431 0.99038,0.15174 c 0.54484,0.0834 10.71198,0.95359 22.59352,1.93364 11.8819,0.98004 21.67607,1.84665 21.76512,1.9258 0.2898,0.25798 -1.94046,138.47581 -2.23907,138.74131 -0.15938,0.14187 -9.92423,0.91454 -21.69987,1.71705 l -21.41008,1.45909 0,-72.96432 z"
       id="path4168"
       inkscape:connector-curvature="0" />
    <path
       style="fill:#f4bd71;fill-opacity:0.11224491;stroke:none"
       d="m 177.00713,604.23949 0,-72.96431 0.99038,0.15174 c 0.54484,0.0834 10.71198,0.95359 22.59352,1.93364 11.8819,0.98004 21.67607,1.84665 21.76512,1.9258 0.2898,0.25798 -1.94046,138.47581 -2.23907,138.74131 -0.15938,0.14187 -9.92423,0.91454 -21.69987,1.71705 l -21.41008,1.45909 0,-72.96432 z"
       id="path4170"
       inkscape:connector-curvature="0" />
    <path
       style="fill:#f4bd71;fill-opacity:0.11224491;stroke:none"
       d="m 177.00713,604.23949 0,-72.96431 0.99038,0.15174 c 0.54484,0.0834 10.71198,0.95359 22.59352,1.93364 11.8819,0.98004 21.67607,1.84665 21.76512,1.9258 0.2898,0.25798 -1.94046,138.47581 -2.23907,138.74131 -0.15938,0.14187 -9.92423,0.91454 -21.69987,1.71705 l -21.41008,1.45909 0,-72.96432 z"
       id="path4172"
       inkscape:connector-curvature="0" />
    <path
       style="fill:#ffcca3;fill-opacity:0.15306121;stroke:none"
       d="m 149.99302,673.96398 c -12.38166,-1.82059 -23.0387,-3.39696 -23.68247,-3.50305 l -1.17062,-0.19287 0,-65.82026 c 0,-36.20115 0.12491,-65.82026 0.27772,-65.82026 0.15241,0 11.42535,-1.58582 25.05022,-3.52401 13.62521,-1.93821 25.00809,-3.524 25.2957,-3.524 0.45581,0 0.52287,9.38513 0.52287,72.88279 l 0,72.88278 -1.89098,-0.0355 c -1.03985,-0.0195 -12.02115,-1.52505 -24.40244,-3.34563 l 0,0 z"
       id="path4176"
       inkscape:connector-curvature="0" />
    <path
       style="fill:#ffcca3;fill-opacity:0.15306121;stroke:none"
       d="m 149.99302,673.96398 c -12.38166,-1.82059 -23.0387,-3.39696 -23.68247,-3.50305 l -1.17062,-0.19287 0,-65.82026 c 0,-36.20115 0.12491,-65.82026 0.27772,-65.82026 0.15241,0 11.42535,-1.58582 25.05022,-3.52401 13.62521,-1.93821 25.00809,-3.524 25.2957,-3.524 0.45581,0 0.52287,9.38513 0.52287,72.88279 l 0,72.88278 -1.89098,-0.0355 c -1.03985,-0.0195 -12.02115,-1.52505 -24.40244,-3.34563 l 0,0 z"
       id="path4178"
       inkscape:connector-curvature="0" />
    <path
       style="fill:#ffcca3;fill-opacity:0.15306121;stroke:none"
       d="m 149.99302,673.96398 c -12.38166,-1.82059 -23.0387,-3.39696 -23.68247,-3.50305 l -1.17062,-0.19287 0,-65.82026 c 0,-36.20115 0.12491,-65.82026 0.27772,-65.82026 0.15241,0 11.42535,-1.58582 25.05022,-3.52401 13.62521,-1.93821 25.00809,-3.524 25.2957,-3.524 0.45581,0 0.52287,9.38513 0.52287,72.88279 l 0,72.88278 -1.89098,-0.0355 c -1.03985,-0.0195 -12.02115,-1.52505 -24.40244,-3.34563 l 0,0 z"
       id="path4180"
       inkscape:connector-curvature="0" />
    <path
       style="fill:#ffcca3;fill-opacity:0.15306121;stroke:none"
       d="m 149.99302,673.96398 c -12.38166,-1.82059 -23.0387,-3.39696 -23.68247,-3.50305 l -1.17062,-0.19287 0,-65.82026 c 0,-36.20115 0.12491,-65.82026 0.27772,-65.82026 0.15241,0 11.42535,-1.58582 25.05022,-3.52401 13.62521,-1.93821 25.00809,-3.524 25.2957,-3.524 0.45581,0 0.52287,9.38513 0.52287,72.88279 l 0,72.88278 -1.89098,-0.0355 c -1.03985,-0.0195 -12.02115,-1.52505 -24.40244,-3.34563 l 0,0 z"
       id="path4182"
       inkscape:connector-curvature="0" />
    <path
       style="fill:#f4bd71;fill-opacity:0.11224491;stroke:none"
       d="m 177.00713,604.23949 0,-72.96431 0.99038,0.15174 c 0.54484,0.0834 10.71198,0.95359 22.59352,1.93364 11.8819,0.98004 21.67607,1.84665 21.76512,1.9258 0.2898,0.25798 -1.94046,138.47581 -2.23907,138.74131 -0.15938,0.14187 -9.92423,0.91454 -21.69987,1.71705 l -21.41008,1.45909 0,-72.96432 z"
       id="path4184"
       inkscape:connector-curvature="0" />
    <path
       style="fill:#f4bd71;fill-opacity:0.11224491;stroke:none"
       d="m 177.00713,604.23949 0,-72.96431 0.99038,0.15174 c 0.54484,0.0834 10.71198,0.95359 22.59352,1.93364 11.8819,0.98004 21.67607,1.84665 21.76512,1.9258 0.2898,0.25798 -1.94046,138.47581 -2.23907,138.74131 -0.15938,0.14187 -9.92423,0.91454 -21.69987,1.71705 l -21.41008,1.45909 0,-72.96432 z"
       id="path4186"
       inkscape:connector-curvature="0" />
    <path
       style="fill:#ffcca3;fill-opacity:0;stroke:#000000;stroke-width:3.45549273;stroke-miterlimit:4;stroke-opacity:1;stroke-dasharray:none"
       d="m 177.00713,604.23949 0,-72.96431 0.99038,0.15174 c 0.54484,0.0834 10.71198,0.95359 22.59352,1.93364 11.8819,0.98004 21.67607,1.84665 21.76512,1.9258 0.2898,0.25798 -1.94046,138.47581 -2.23907,138.74131 -0.15938,0.14187 -9.92423,0.91454 -21.69987,1.71705 l -21.41008,1.45909 0,-72.96432 z"
       id="path4188"
       inkscape:connector-curvature="0" />
    <path
       style="fill:#ffcca3;fill-opacity:0.19607843;stroke:#000000;stroke-width:3.45549273;stroke-miterlimit:4;stroke-opacity:1;stroke-dasharray:none"
       d="m 149.99302,673.96398 c -12.38166,-1.82059 -23.0387,-3.39696 -23.68247,-3.50305 l -1.17062,-0.19287 0,-65.82026 c 0,-36.20115 0.12491,-65.82026 0.27772,-65.82026 0.15241,0 11.42535,-1.58582 25.05022,-3.52401 13.62521,-1.93821 25.00809,-3.524 25.2957,-3.524 0.45581,0 0.52287,9.38513 0.52287,72.88279 l 0,72.88278 -1.89098,-0.0355 c -1.03985,-0.0195 -12.02115,-1.52505 -24.40244,-3.34563 l 0,0 z"
       id="path4700"
       inkscape:connector-curvature="0" />
    <path
       style="fill:#ffcca3;fill-opacity:1;fill-rule:nonzero;stroke:#000000;stroke-width:3.45549273;stroke-miterlimit:4;stroke-opacity:1;stroke-dasharray:none"
       d="m 73.964467,662.84863 c -0.01466,-7.09205 -0.30704,-39.06037 -0.646692,-71.04068 -0.340016,-31.98033 -0.566817,-58.20905 -0.504163,-58.28601 0.09453,-0.11646 38.846178,3.75282 48.634488,4.85607 l 2.97148,0.33493 0,65.95226 c 0,57.18681 -0.069,65.95225 -0.51846,65.95225 -0.28542,0 -11.48911,1.15331 -24.89706,2.56292 -13.40831,1.4096 -24.520775,2.56292 -24.694447,2.56292 -0.175871,0 -0.329026,-5.72979 -0.345146,-12.89466 l 0,0 z"
       id="path4702"
       inkscape:connector-curvature="0" />
    <path
       style="fill:none;stroke:#000000;stroke-width:3.10994315;stroke-linecap:butt;stroke-linejoin:miter;stroke-miterlimit:4;stroke-opacity:0.68627451;stroke-dasharray:none"
       d="m 205.97523,671.66573 -30.61615,-24.98839 -18.72951,-8.64981 -10.80579,-22.10512 -18.36933,-16.33855 -0.36017,-9.61092 6.12288,-23.0662"
       id="path6195"
       inkscape:connector-curvature="0" />
    <path
       style="fill:none;stroke:#000000;stroke-width:2.76439404;stroke-linecap:butt;stroke-linejoin:miter;stroke-miterlimit:4;stroke-opacity:0.58823529;stroke-dasharray:none"
       d="m 173.9184,645.39589 28.81496,-13.77565"
       id="path6197"
       inkscape:connector-curvature="0" />
    <path
       style="fill:none;stroke:#000000;stroke-width:2.76439404;stroke-linecap:butt;stroke-linejoin:miter;stroke-miterlimit:4;stroke-opacity:0.58823529;stroke-dasharray:none"
       d="m 168.87603,642.83297 23.41208,-19.22182"
       id="path6199"
       inkscape:connector-curvature="0" />
    <path
       style="fill:none;stroke:#000000;stroke-width:1.72774637;stroke-linecap:butt;stroke-linejoin:miter;stroke-miterlimit:4;stroke-opacity:0.58823529;stroke-dasharray:none"
       d="M 162.39264,640.27008 142.2221,654.04572"
       id="path6201"
       inkscape:connector-curvature="0" />
    <path
       style="fill:none;stroke:#000000;stroke-width:2.61849189;stroke-linecap:butt;stroke-linejoin:miter;stroke-miterlimit:4;stroke-opacity:0.68627451;stroke-dasharray:none"
       d="m 155.44318,634.23371 -22.10804,9.78659 -13.26433,-10.7041 -35.3731,2.14083"
       id="path6203"
       inkscape:connector-curvature="0" />
    <path
       style="fill:none;stroke:#000000;stroke-width:2.76439404;stroke-linecap:butt;stroke-linejoin:miter;stroke-miterlimit:4;stroke-opacity:0.68627451;stroke-dasharray:none"
       d="m 145.10345,614.64097 16.56849,-19.22183 32.05684,-20.82367 11.16595,-1.60181 0.36017,0"
       id="path6205"
       inkscape:connector-curvature="0" />
    <path
       style="fill:none;stroke:#000000;stroke-width:2.4188447;stroke-linecap:butt;stroke-linejoin:miter;stroke-miterlimit:4;stroke-opacity:0.58823529;stroke-dasharray:none"
       d="m 153.74786,604.06895 -3.60169,-13.45527 15.84815,-8.32947"
       id="path6207"
       inkscape:connector-curvature="0" />
    <path
       style="fill:none;stroke:#000000;stroke-width:1.72774637;stroke-linecap:butt;stroke-linejoin:miter;stroke-miterlimit:4;stroke-opacity:0.58823529;stroke-dasharray:none"
       d="m 159.15075,586.12857 -0.36017,-14.09601 10.08545,0.64073 28.81497,-24.0273"
       id="path6209"
       inkscape:connector-curvature="0" />
    <path
       style="fill:none;stroke:#000000;stroke-width:1.72774637;stroke-linecap:butt;stroke-linejoin:miter;stroke-miterlimit:4;stroke-opacity:0.58823529;stroke-dasharray:none"
       d="m 127.09428,591.25439 17.28883,-15.37746"
       id="path6211"
       inkscape:connector-curvature="0" />
    <path
       style="fill:none;stroke:#000000;stroke-width:2.4188447;stroke-linecap:butt;stroke-linejoin:miter;stroke-miterlimit:4;stroke-opacity:0.68627451;stroke-dasharray:none"
       d="m 126.7341,594.13767 -15.48834,5.76656 -18.00916,-13.77566 -6.4834,-0.96108"
       id="path6213"
       inkscape:connector-curvature="0" />
    <path
       style="fill:none;stroke:#000000;stroke-width:1.72774637;stroke-linecap:butt;stroke-linejoin:miter;stroke-miterlimit:4;stroke-opacity:0.58823529;stroke-dasharray:none"
       d="m 127.81462,587.08968 -24.8531,-12.81457 -15.12781,0.64073 2.52118,-10.89237"
       id="path6215"
       inkscape:connector-curvature="0" />
    <path
       sodipodi:type="arc"
       style="fill:#aa0000;fill-opacity:1;fill-rule:nonzero;stroke:none"
       id="path6251"
       sodipodi:cx="17087.881"
       sodipodi:cy="140.57626"
       sodipodi:rx="9.3389826"
       sodipodi:ry="9.8305082"
       d="m 17097.22,140.57626 a 9.3389826,9.8305082 0 1 1 -18.678,0 9.3389826,9.8305082 0 1 1 18.678,0 z"
       transform="matrix(0.36639737,0,0,0.3258874,-6050.4775,525.57979)" />
    <path
       sodipodi:type="arc"
       style="fill:#aa0000;fill-opacity:1;fill-rule:nonzero;stroke:none"
       id="path6253"
       sodipodi:cx="17057.898"
       sodipodi:cy="167.61017"
       sodipodi:rx="6.8813558"
       sodipodi:ry="8.3559322"
       d="m 17064.78,167.61017 a 6.8813558,8.3559322 0 1 1 -13.763,0 6.8813558,8.3559322 0 1 1 13.763,0 z"
       transform="matrix(0.36639737,0,0,0.3258874,-6043.2734,524.61871)" />
    <path
       sodipodi:type="arc"
       style="fill:#aa0000;fill-opacity:1;fill-rule:nonzero;stroke:none"
       id="path6255"
       sodipodi:cx="17034.305"
       sodipodi:cy="147.45763"
       sodipodi:rx="11.79661"
       sodipodi:ry="10.81356"
       d="m 17046.101,147.45763 a 11.79661,10.81356 0 1 1 -23.593,0 11.79661,10.81356 0 1 1 23.593,0 z"
       transform="matrix(0.36639737,0,0,0.3258874,-6041.8329,518.85215)" />
    <path
       sodipodi:type="arc"
       style="fill:#aa0000;fill-opacity:1;fill-rule:nonzero;stroke:none"
       id="path6257"
       sodipodi:cx="17060.848"
       sodipodi:cy="110.10169"
       sodipodi:rx="6.8813558"
       sodipodi:ry="8.8474579"
       d="m 17067.729,110.10169 a 6.8813558,8.8474579 0 1 1 -13.763,0 6.8813558,8.8474579 0 1 1 13.763,0 z"
       transform="matrix(0.36639737,0,0,0.3258874,-6053.3593,518.85215)" />
    <path
       sodipodi:type="arc"
       style="fill:#aa0000;fill-opacity:1;fill-rule:nonzero;stroke:none"
       id="path6259"
       sodipodi:cx="17020.051"
       sodipodi:cy="110.10169"
       sodipodi:rx="10.322034"
       sodipodi:ry="9.8305082"
       d="m 17030.373,110.10169 a 10.322034,9.8305082 0 1 1 -20.644,0 10.322034,9.8305082 0 1 1 20.644,0 z"
       transform="matrix(0.36639737,0,0,0.3258874,-6048.3167,514.0467)" />
    <path
       sodipodi:type="arc"
       style="fill:#aa0000;fill-opacity:1;fill-rule:nonzero;stroke:none"
       id="path6261"
       sodipodi:cx="17021.033"
       sodipodi:cy="256.57626"
       sodipodi:rx="5.4067798"
       sodipodi:ry="4.9152541"
       d="m 17026.44,256.57626 a 5.4067798,4.9152541 0 1 1 -10.814,0 5.4067798,4.9152541 0 1 1 10.814,0 z"
       transform="matrix(0.36639737,0,0,0.3258874,-6044.3546,544.80163)" />
    <path
       sodipodi:type="arc"
       style="fill:#aa0000;fill-opacity:1;fill-rule:nonzero;stroke:none"
       id="path6263"
       sodipodi:cx="17026.932"
       sodipodi:cy="282.62711"
       sodipodi:rx="10.322034"
       sodipodi:ry="9.3389826"
       d="m 17037.254,282.62711 a 10.322034,9.3389826 0 1 1 -20.644,0 10.322034,9.3389826 0 1 1 20.644,0 z"
       transform="matrix(0.36639737,0,0,0.3258874,-6044.3546,526.86126)" />
    <path
       sodipodi:type="arc"
       style="fill:#aa0000;fill-opacity:1;fill-rule:nonzero;stroke:none"
       id="path6265"
       sodipodi:cx="17041.186"
       sodipodi:cy="307.2034"
       sodipodi:rx="9.8305082"
       sodipodi:ry="10.322034"
       d="m 17051.016,307.2034 a 9.8305082,10.322034 0 1 1 -19.661,0 9.8305082,10.322034 0 1 1 19.661,0 z"
       transform="matrix(0.36639737,0,0,0.3258874,-6058.0424,521.41506)" />
    <path
       sodipodi:type="arc"
       style="fill:#aa0000;fill-opacity:1;fill-rule:nonzero;stroke:none"
       id="path6267"
       sodipodi:cx="17076.576"
       sodipodi:cy="335.71185"
       sodipodi:rx="11.79661"
       sodipodi:ry="8.3559322"
       d="m 17088.373,335.71185 a 11.79661,8.3559322 0 1 1 -23.593,0 11.79661,8.3559322 0 1 1 23.593,0 z"
       transform="matrix(0.36639737,0,0,0.3258874,-6048.3167,524.61871)" />
    <path
       sodipodi:type="arc"
       style="fill:#aa0000;fill-opacity:1;fill-rule:nonzero;stroke:none"
       id="path6269"
       sodipodi:cx="17029.881"
       sodipodi:cy="360.77966"
       sodipodi:rx="5.4067798"
       sodipodi:ry="3.9322033"
       d="m 17035.288,360.77966 a 5.4067798,3.9322033 0 1 1 -10.814,0 5.4067798,3.9322033 0 1 1 10.814,0 z"
       transform="matrix(0.36639737,0,0,0.3258874,-6071.7284,467.9143)" />
    <path
       sodipodi:type="arc"
       style="fill:#aa0000;fill-opacity:1;fill-rule:nonzero;stroke:none"
       id="path6271"
       sodipodi:cx="17042.66"
       sodipodi:cy="354.88135"
       sodipodi:rx="8.3559322"
       sodipodi:ry="6.8813558"
       d="m 17051.016,354.88135 a 8.3559322,6.8813558 0 1 1 -16.712,0 8.3559322,6.8813558 0 1 1 16.712,0 z"
       transform="matrix(0.36639737,0,0,0.3258874,-6042.9131,522.69652)" />
    <path
       sodipodi:type="arc"
       style="fill:#aa0000;fill-opacity:1;fill-rule:nonzero;stroke:none"
       id="path6273"
       sodipodi:cx="16896.186"
       sodipodi:cy="414.35593"
       sodipodi:rx="9.3389826"
       sodipodi:ry="9.3389826"
       d="m 16905.525,414.35593 a 9.3389826,9.3389826 0 1 1 -18.678,0 9.3389826,9.3389826 0 1 1 18.678,0 z"
       transform="matrix(0.36639737,0,0,0.3258874,-6052.2776,515.0078)" />
    <path
       sodipodi:type="arc"
       style="fill:#aa0000;fill-opacity:1;fill-rule:nonzero;stroke:none"
       id="path6275"
       sodipodi:cx="16954.186"
       sodipodi:cy="339.15256"
       sodipodi:rx="5.4067798"
       sodipodi:ry="9.8305082"
       d="m 16959.592,339.15256 a 5.4067798,9.8305082 0 1 1 -10.813,0 5.4067798,9.8305082 0 1 1 10.813,0 z"
       transform="matrix(0.36639737,0,0,0.3258874,-6065.246,546.40345)" />
    <path
       sodipodi:type="arc"
       style="fill:#aa0000;fill-opacity:1;fill-rule:nonzero;stroke:none"
       id="path6277"
       sodipodi:cx="16913.881"
       sodipodi:cy="338.66101"
       sodipodi:rx="9.3389826"
       sodipodi:ry="7.3728814"
       d="m 16923.22,338.66101 a 9.3389826,7.3728814 0 1 1 -18.678,0 9.3389826,7.3728814 0 1 1 18.678,0 z"
       transform="matrix(0.36639737,0,0,0.3258874,-6001.1316,434.27609)" />
    <path
       sodipodi:type="arc"
       style="fill:#aa0000;fill-opacity:1;fill-rule:nonzero;stroke:none"
       id="path6279"
       sodipodi:cx="16954.186"
       sodipodi:cy="287.54236"
       sodipodi:rx="8.3559322"
       sodipodi:ry="9.3389826"
       d="m 16962.541,287.54236 a 8.3559322,9.3389826 0 1 1 -16.711,0 8.3559322,9.3389826 0 1 1 16.711,0 z"
       transform="matrix(0.36639737,0,0,0.3258874,-6064.1646,477.52521)" />
    <path
       sodipodi:type="arc"
       style="fill:#aa0000;fill-opacity:1;fill-rule:nonzero;stroke:none"
       id="path6281"
       sodipodi:cx="16923.711"
       sodipodi:cy="260.01694"
       sodipodi:rx="7.3728814"
       sodipodi:ry="9.3389826"
       d="m 16931.084,260.01694 a 7.3728814,9.3389826 0 1 1 -14.746,0 7.3728814,9.3389826 0 1 1 14.746,0 z"
       transform="matrix(0.36639737,0,0,0.3258874,-6035.7101,492.90268)" />
    <path
       sodipodi:type="arc"
       style="fill:#aa0000;fill-opacity:1;fill-rule:nonzero;stroke:none"
       id="path6283"
       sodipodi:cx="16918.305"
       sodipodi:cy="211.35593"
       sodipodi:rx="8.8474579"
       sodipodi:ry="7.8644066"
       d="m 16927.152,211.35593 a 8.8474579,7.8644066 0 1 1 -17.695,0 8.8474579,7.8644066 0 1 1 17.695,0 z"
       transform="matrix(0.36639737,0,0,0.3258874,-6050.4775,509.5616)" />
    <path
       sodipodi:type="arc"
       style="fill:#aa0000;fill-opacity:1;fill-rule:nonzero;stroke:none"
       id="path6287"
       sodipodi:cx="16891.764"
       sodipodi:cy="131.72882"
       sodipodi:rx="12.779661"
       sodipodi:ry="9.8305082"
       d="m 16904.543,131.72882 a 12.779661,9.8305082 0 1 1 -25.559,0 12.779661,9.8305082 0 1 1 25.559,0 z"
       transform="matrix(0.1831987,0,0,0.3910649,-2963.6726,510.26639)" />
    <path
       sodipodi:type="arc"
       style="fill:#aa0000;fill-opacity:1;fill-rule:nonzero;stroke:none"
       id="path6289"
       sodipodi:cx="16760.033"
       sodipodi:cy="129.27118"
       sodipodi:rx="9.8305082"
       sodipodi:ry="13.271187"
       d="m 16769.864,129.27118 a 9.8305082,13.271187 0 1 1 -19.661,0 9.8305082,13.271187 0 1 1 19.661,0 z"
       transform="matrix(0.36639737,0,0,0.3258874,-6056.6009,522.69652)" />
    <path
       sodipodi:type="arc"
       style="fill:#aa0000;fill-opacity:1;fill-rule:nonzero;stroke:none"
       id="path6291"
       sodipodi:cx="16805.254"
       sodipodi:cy="191.20338"
       sodipodi:rx="14.745763"
       sodipodi:ry="12.288136"
       d="m 16820,191.20338 a 14.745763,12.288136 0 1 1 -29.492,0 14.745763,12.288136 0 1 1 29.492,0 z"
       transform="matrix(0.31754441,0,0,0.20856794,-5245.6989,541.12386)" />
    <path
       sodipodi:type="arc"
       style="fill:#aa0000;fill-opacity:1;fill-rule:nonzero;stroke:none"
       id="path6293"
       sodipodi:cx="16762.492"
       sodipodi:cy="220.69492"
       sodipodi:rx="12.288136"
       sodipodi:ry="10.322034"
       d="m 16774.78,220.69492 a 12.288136,10.322034 0 1 1 -24.576,0 12.288136,10.322034 0 1 1 24.576,0 z"
       transform="matrix(0.36639737,0,0,0.3258874,-6053.7196,519.17252)" />
    <path
       sodipodi:type="arc"
       style="fill:#aa0000;fill-opacity:1;fill-rule:nonzero;stroke:none"
       id="path6295"
       sodipodi:cx="16818.033"
       sodipodi:cy="308.67798"
       sodipodi:rx="8.8474579"
       sodipodi:ry="6.8813558"
       d="m 16826.881,308.67798 a 8.8474579,6.8813558 0 1 1 -17.695,0 8.8474579,6.8813558 0 1 1 17.695,0 z"
       transform="matrix(0.36639737,0,0,0.3258874,-6073.1688,457.98302)" />
    <path
       sodipodi:type="arc"
       style="fill:#aa0000;fill-opacity:1;fill-rule:nonzero;stroke:none"
       id="path6297"
       sodipodi:cx="16831.305"
       sodipodi:cy="331.28815"
       sodipodi:rx="6.3898306"
       sodipodi:ry="9.8305082"
       d="m 16837.695,331.28815 a 6.3898306,9.8305082 0 1 1 -12.78,0 6.3898306,9.8305082 0 1 1 12.78,0 z"
       transform="matrix(0.36639737,0,0,0.3258874,-6084.335,476.24375)" />
    <path
       sodipodi:type="arc"
       style="fill:#aa0000;fill-opacity:1;fill-rule:nonzero;stroke:none"
       id="path6299"
       sodipodi:cx="16810.66"
       sodipodi:cy="382.89832"
       sodipodi:rx="6.3898306"
       sodipodi:ry="6.3898306"
       d="m 16817.05,382.89832 a 6.3898306,6.3898306 0 1 1 -12.78,0 6.3898306,6.3898306 0 1 1 12.78,0 z"
       transform="matrix(0.36639737,0,0,0.3258874,-5989.2449,456.70155)" />
    <path
       sodipodi:type="arc"
       style="fill:#aa0000;fill-opacity:1;fill-rule:nonzero;stroke:none"
       id="path6311"
       sodipodi:cx="16826.881"
       sodipodi:cy="393.71185"
       sodipodi:rx="8.8474579"
       sodipodi:ry="8.3559322"
       d="m 16835.728,393.71185 a 8.8474579,8.3559322 0 1 1 -17.695,0 8.8474579,8.3559322 0 1 1 17.695,0 z"
       transform="matrix(0.36639737,0,0,0.3258874,-6085.0555,511.16343)" />
    <path
       sodipodi:type="arc"
       style="fill:#aa0000;fill-opacity:1;fill-rule:nonzero;stroke:none"
       id="path6313"
       sodipodi:cx="16772.322"
       sodipodi:cy="385.35593"
       sodipodi:rx="21.135593"
       sodipodi:ry="11.79661"
       d="m 16793.458,385.35593 a 21.135593,11.79661 0 1 1 -42.271,0 21.135593,11.79661 0 1 1 42.271,0 z"
       transform="matrix(0.17893827,0,0,0.21725828,-2911.3953,556.86866)" />
    <path
       sodipodi:type="arc"
       style="fill:#aa0000;fill-opacity:1;fill-rule:nonzero;stroke:none"
       id="path6315"
       sodipodi:cx="16786.576"
       sodipodi:cy="348.98306"
       sodipodi:rx="9.8305082"
       sodipodi:ry="7.8644066"
       d="m 16796.407,348.98306 a 9.8305082,7.8644066 0 1 1 -19.661,0 9.8305082,7.8644066 0 1 1 19.661,0 z"
       transform="matrix(0.36639737,0,0,0.3258874,-6065.605,516.60961)" />
    <path
       sodipodi:type="arc"
       style="fill:#aa0000;fill-opacity:1;fill-rule:nonzero;stroke:none"
       id="path6317"
       sodipodi:cx="16798.865"
       sodipodi:cy="333.74576"
       sodipodi:rx="6.3898306"
       sodipodi:ry="7.3728814"
       d="m 16805.255,333.74576 a 6.3898306,7.3728814 0 1 1 -12.78,0 6.3898306,7.3728814 0 1 1 12.78,0 z"
       transform="matrix(0.36639737,0,0,0.3258874,-6017.341,457.98302)" />
    <path
       sodipodi:type="arc"
       style="fill:#aa0000;fill-opacity:1;fill-rule:nonzero;stroke:none"
       id="path6323"
       sodipodi:cx="16764.457"
       sodipodi:cy="341.11865"
       sodipodi:rx="10.322034"
       sodipodi:ry="7.8644066"
       d="m 16774.779,341.11865 a 10.322034,7.8644066 0 1 1 -20.644,0 10.322034,7.8644066 0 1 1 20.644,0 z"
       transform="matrix(0.41873985,0,0,0.26478352,-6881.3269,470.65742)" />
    <path
       sodipodi:type="arc"
       style="fill:#aa0000;fill-opacity:1;fill-rule:nonzero;stroke:none"
       id="path6325"
       sodipodi:cx="16888.814"
       sodipodi:cy="284.10168"
       sodipodi:rx="6.8813558"
       sodipodi:ry="7.8644066"
       d="m 16895.696,284.10168 a 6.8813558,7.8644066 0 1 1 -13.763,0 6.8813558,7.8644066 0 1 1 13.763,0 z"
       transform="matrix(0.36639737,0,0,0.3258874,-6046.8757,479.76776)" />
    <path
       sodipodi:type="arc"
       style="fill:#aa0000;fill-opacity:1;fill-rule:nonzero;stroke:none"
       id="path6327"
       sodipodi:cx="17077.068"
       sodipodi:cy="290"
       sodipodi:rx="11.305085"
       sodipodi:ry="14.745763"
       d="m 17088.373,290 a 11.305085,14.745763 0 1 1 -22.61,0 11.305085,14.745763 0 1 1 22.61,0 z"
       transform="matrix(0.36639737,0,0,0.3258874,-6052.998,530.38526)" />
    <path
       sodipodi:type="arc"
       style="fill:#aa0000;fill-opacity:1;fill-rule:nonzero;stroke:none"
       id="path6329"
       sodipodi:cx="16825.898"
       sodipodi:cy="146.96609"
       sodipodi:rx="11.79661"
       sodipodi:ry="7.3728814"
       d="m 16837.695,146.96609 a 11.79661,7.3728814 0 1 1 -23.593,0 11.79661,7.3728814 0 1 1 23.593,0 z"
       transform="matrix(0.36639737,0,0,0.3258874,-6068.8472,514.68743)" />
    <path
       sodipodi:type="arc"
       style="fill:#aa0000;fill-opacity:1;fill-rule:nonzero;stroke:none"
       id="path6331"
       sodipodi:cx="16937.967"
       sodipodi:cy="414.35593"
       sodipodi:rx="7.8644066"
       sodipodi:ry="6.3898306"
       d="m 16945.831,414.35593 a 7.8644066,6.3898306 0 1 1 -15.729,0 7.8644066,6.3898306 0 1 1 15.729,0 z"
       transform="matrix(0.36639737,0,0,0.3258874,-6065.9654,523.0169)" />
    <path
       style="fill:#008000"
       d="m 168.28426,644.88506 c -3.265,-1.50147 -6.28214,-2.81341 -6.70475,-2.91544 -0.68953,-0.16644 -0.67843,-0.18989 0.1081,-0.22856 1.11278,-0.0547 1.52285,-1.03979 0.74564,-1.79118 -0.53858,-0.52066 -0.70105,-0.50539 -1.68538,0.15844 l -1.08934,0.73464 -2.04044,-0.90732 c -1.5265,-0.67877 -2.20389,-1.24108 -2.68939,-2.2324 -0.38647,-0.78917 -0.49356,-1.37842 -0.26475,-1.45691 1.30933,-0.44917 1.43801,-0.74606 0.92169,-2.12647 -0.36884,-0.98604 -0.6683,-1.29106 -1.09857,-1.11885 -1.44077,0.57659 -1.72097,0.18583 -5.71779,-7.97391 l -4.07231,-8.31381 -8.75158,-7.79236 -8.75157,-7.79235 0,-4.5114 c 0,-4.10914 0.0685,-4.55276 0.7684,-4.97531 0.74999,-0.4528 0.7684,-0.37094 0.7684,3.41749 l 0,3.88139 7.85041,6.97772 c 5.52676,4.91234 7.74104,7.10513 7.48085,7.40821 -0.45762,0.53306 1.72975,2.43281 2.48044,2.15431 0.34424,-0.1277 2.17027,3.23353 5.80965,10.69397 l 5.30762,10.8802 4.80952,2.2262 c 2.99561,1.38658 5.28066,2.70898 6.05875,3.5063 1.04131,1.06704 1.34577,1.20264 1.82926,0.81471 0.90831,-0.72876 2.66354,0.35217 3.50654,2.15945 0.38868,0.8333 0.628,1.59118 0.53182,1.68414 -0.0962,0.093 -2.84622,-1.05941 -6.11122,-2.5609 l 0,0 z"
       id="path3178"
       inkscape:connector-curvature="0" />
    <path
       style="fill:#008000"
       d="m 127.19382,589.02705 c 0,-0.46219 0.29131,-1.27015 0.64735,-1.79548 0.60701,-0.8956 0.60701,-0.97696 0,-1.30537 -0.35604,-0.19264 -0.64735,-0.65939 -0.64735,-1.03727 0,-0.65018 4.49591,-17.88838 4.7042,-18.03682 0.054,-0.0385 0.66948,0.0791 1.36761,0.26127 0.94285,0.2461 1.21933,0.49444 1.07487,0.9655 -0.10696,0.34881 -1.34042,4.97985 -2.74101,10.29124 -2.02498,7.67916 -2.73693,9.84547 -3.4761,10.57714 l -0.92957,0.92013 0,-0.84034 z"
       id="path3180"
       inkscape:connector-curvature="0" />
    <path
       style="fill:#008000"
       d="m 112.40222,579.88841 -9.60494,-4.96349 -6.33926,0.31083 c -3.4866,0.17095 -7.04755,0.31933 -7.91323,0.32974 l -1.57397,0.019 1.30811,-5.65482 c 0.71946,-3.11015 1.37707,-5.72149 1.46135,-5.80297 0.0843,-0.0814 0.39849,-0.0571 0.69825,0.054 0.4539,0.16839 0.36302,0.9677 -0.54364,4.78154 -0.59875,2.51864 -1.09589,4.7217 -1.10474,4.89567 -0.009,0.17398 3.22558,0.19954 7.18762,0.0569 l 7.2037,-0.25947 9.60002,4.95908 c 6.18826,3.19667 9.64591,5.18948 9.72917,5.60739 0.071,0.35656 -0.0132,0.64421 -0.18718,0.63922 -0.17398,-0.005 -4.63855,-2.24263 -9.92127,-4.97254 z"
       id="path3182"
       inkscape:connector-curvature="0" />
    <path
       style="fill:#008000"
       d="m 129.11481,589.41873 c 0,-0.53709 2.28307,-2.82139 7.31587,-7.3198 6.47155,-5.78443 8.05204,-6.92219 8.05204,-5.79664 0,0.23712 -9.85145,9.17402 -14.50346,13.15704 l -0.86445,0.74013 0,-0.78073 z"
       id="path3186"
       inkscape:connector-curvature="0" />
    <path
       style="fill:#008000"
       d="m 101.90393,594.00546 c -8.67807,-6.63961 -9.0039,-6.84749 -11.35181,-7.24277 -1.32951,-0.22384 -2.70569,-0.40697 -3.05817,-0.40697 -0.65168,0 -0.9446,-1.6413 -0.35273,-1.97642 0.20574,-0.1165 5.5396,0.57418 6.50622,0.84247 0.039,0.0109 3.90202,2.95592 8.58451,6.54468 4.68248,3.58873 8.73695,6.60782 9.00992,6.70909 0.27298,0.10126 2.94619,-0.72936 5.94049,-1.84584 l 5.44417,-2.02998 -0.1176,1.10855 c -0.11243,1.06007 -0.35289,1.19642 -5.49635,3.11699 -2.95832,1.10463 -5.55772,2.01013 -5.77645,2.01222 -0.21872,0.002 -4.41822,-3.07231 -9.3322,-6.83202 z"
       id="path3188"
       inkscape:connector-curvature="0" />
    <path
       style="fill:#008000"
       d="m 84.93209,635.38376 c 0,-1.00539 0.12203,-1.11625 1.24864,-1.13445 0.68675,-0.0112 8.6784,-0.47669 17.75921,-1.03465 l 16.51056,-1.01448 1.0975,0.94802 c 0.87473,0.75558 1.07171,1.20352 0.97043,2.20674 l -0.12708,1.25873 -1.20805,-0.98638 c -1.51472,-1.23678 -1.16856,-1.23577 -20.11491,-0.0578 -8.13539,0.5058 -15.09417,0.92165 -15.46396,0.92411 -0.49194,0.003 -0.67234,-0.29452 -0.67234,-1.10982 z"
       id="path3190"
       inkscape:connector-curvature="0" />
    <path
       style="fill:#008000"
       d="m 130.17136,642.89015 c -2.6178,-2.13372 -2.97754,-2.57671 -2.97754,-3.66667 0,-0.68186 0.0964,-1.23975 0.21414,-1.23975 0.11778,0 1.52649,1.06755 3.13047,2.37233 2.85787,2.32479 2.9402,2.36257 4.10808,1.88597 0.65547,-0.2675 4.98057,-2.17108 9.61135,-4.23017 4.63078,-2.0591 8.45414,-3.7017 8.49636,-3.65023 0.0422,0.0515 0.27597,0.46389 0.51945,0.91651 0.53233,0.98957 1.36477,0.53206 -10.32775,5.67614 -4.75443,2.09168 -8.90377,3.92902 -9.22074,4.08294 -0.39918,0.19385 -1.49137,-0.466 -3.55382,-2.14707 z"
       id="path3192"
       inkscape:connector-curvature="0" />
    <path
       style="fill:#008000"
       d="m 142.43366,654.07879 c -0.14088,-0.13619 -0.25614,-0.3692 -0.25614,-0.51777 0,-0.14859 3.76034,-2.82259 8.3563,-5.94224 4.59597,-3.11965 8.56337,-5.82482 8.81644,-6.0115 0.27817,-0.20519 0.71083,-0.20377 1.09412,0.004 0.50634,0.27392 -1.19019,1.58866 -8.42533,6.52926 -4.98263,3.40244 -9.12005,6.18626 -9.19429,6.18626 -0.0742,0 -0.25023,-0.11143 -0.3911,-0.24761 z"
       id="path3194"
       inkscape:connector-curvature="0" />
    <path
       style="fill:#008000"
       d="m 153.68494,635.15095 c -0.29689,-0.75492 -0.27205,-1.08124 0.0997,-1.30924 0.74548,-0.45726 1.00602,-0.38438 1.4421,0.40336 0.53619,0.96856 0.51564,1.05154 -0.37431,1.512 -0.66219,0.3426 -0.82827,0.25639 -1.16747,-0.60612 z"
       id="path3196"
       inkscape:connector-curvature="0" />
    <path
       style="fill:#008000"
       d="m 160.70599,641.38638 c -0.37267,-0.22865 -0.29838,-0.46732 0.31159,-1.00098 0.67343,-0.58917 0.85487,-0.61637 1.1397,-0.17082 0.20522,0.32101 0.17742,0.71786 -0.0706,1.00665 -0.47336,0.55141 -0.70591,0.57921 -1.38079,0.16515 z"
       id="path3198"
       inkscape:connector-curvature="0" />
    <path
       style="fill:#008000"
       d="m 152.03229,601.51404 c -1.54734,-5.20208 -2.94769,-11.21111 -2.67108,-11.46191 0.16949,-0.15368 2.09027,-1.22783 4.26838,-2.387 2.72288,-1.4491 4.10334,-1.99539 4.41828,-1.74847 0.25193,0.19752 0.80384,0.42302 1.22644,0.5011 0.5346,0.0988 -0.51755,0.8057 -3.45776,2.32324 -2.32439,1.19969 -4.27725,2.21995 -4.33966,2.26721 -0.13483,0.1021 2.10846,8.94592 2.54133,10.01878 0.2153,0.53364 0.0604,0.98462 -0.54972,1.60131 l -0.84942,0.85847 -0.58679,-1.97273 z"
       id="path3200"
       inkscape:connector-curvature="0" />
    <path
       style="fill:#008000"
       d="m 158.30859,578.83439 c -0.003,-3.11533 -0.11566,-6.06303 -0.2506,-6.55046 l -0.24531,-0.88622 5.44229,0.27108 5.44229,0.27107 2.78039,-2.28234 c 2.24284,-1.84111 2.80768,-2.15445 2.92164,-1.62077 0.0941,0.44098 -0.73856,1.436 -2.4973,2.98403 l -2.63853,2.32245 -4.03407,-0.20236 c -2.21874,-0.11132 -4.44769,-0.28476 -4.95322,-0.38546 l -0.91913,-0.18308 0.2779,5.64407 c 0.27711,5.62814 0.17432,6.2527 -1.03296,6.27652 -0.15848,0.003 -0.29051,-2.54322 -0.29339,-5.65853 z"
       id="path3202"
       inkscape:connector-curvature="0" />
    <path
       style="fill:#008000"
       d="m 160.23481,585.30083 c 0,-0.97892 0.29118,-1.2602 2.54331,-2.45697 1.39881,-0.74332 2.58561,-1.30186 2.63734,-1.24121 0.0517,0.0606 0.27692,0.45109 0.50043,0.86764 0.36915,0.68796 0.12749,0.903 -2.63735,2.34669 l -3.04373,1.58931 0,-1.10546 z"
       id="path3204"
       inkscape:connector-curvature="0" />
    <path
       style="fill:#008000"
       d=""
       id="path3206"
       inkscape:connector-curvature="0"
       transform="translate(0,468)" />
    <path
       style="fill:#008000"
       d="m 158.31382,585.68716 c 0,-0.38441 0.83181,-1.18855 1.22944,-1.18855 0.16905,0 0.30735,0.33429 0.30735,0.74285 0,0.49523 -0.25612,0.74285 -0.76839,0.74285 -0.42261,0 -0.7684,-0.13371 -0.7684,-0.29715 z"
       id="path3208"
       inkscape:connector-curvature="0" />
    <path
       style="fill:#008000"
       d=""
       id="path3210"
       inkscape:connector-curvature="0"
       transform="translate(0,468)" />
    <path
       style="fill:#008000"
       d="m 179.06049,564.10819 c 0,-0.51504 2.78158,-3.07462 8.91132,-8.20012 4.90121,-4.09825 9.09376,-7.39256 9.31677,-7.32069 0.22304,0.0719 0.40551,0.31016 0.40551,0.52953 0,0.32614 -16.9565,14.738 -18.24845,15.50992 -0.21183,0.12656 -0.38515,-0.10682 -0.38515,-0.51864 z"
       id="path3212"
       inkscape:connector-curvature="0" />
    <path
       style="fill:#008000"
       d="m 179.06049,584.01594 c 0,-1.17622 0.28976,-1.414 7.20371,-5.91142 l 7.20371,-4.68589 5.46281,-0.77423 c 3.00455,-0.42582 5.6411,-0.77422 5.85901,-0.77422 0.21791,0 0.3962,0.4833 0.3962,1.074 0,1.26292 0.11398,1.22501 -6.33926,2.10843 l -4.61037,0.63113 -7.37742,4.77885 c -4.05759,2.62839 -7.47214,4.77887 -7.5879,4.77887 -0.11576,0 -0.21049,-0.55148 -0.21049,-1.22552 z"
       id="path3214"
       inkscape:connector-curvature="0" />
    <path
       style="fill:#008000"
       d="m 145.80328,613.56045 c -0.78132,-0.61029 -0.74126,-0.67796 2.83318,-4.786 2.96867,-3.41184 3.87815,-4.22477 5.01871,-4.48592 1.27927,-0.2929 1.38289,-0.41522 1.26941,-1.49839 -0.10545,-1.00659 0.31686,-1.68971 2.88149,-4.66101 2.68424,-3.10987 3.70926,-3.94397 9.60165,-7.81319 3.62814,-2.3824 6.69692,-4.33163 6.8195,-4.33163 0.1226,0 0.2229,0.55369 0.2229,1.23043 0,1.17286 -0.28466,1.41746 -6.08474,5.22848 l -6.08473,3.99806 -7.64124,8.88564 c -4.20268,4.8871 -7.73178,8.8782 -7.84242,8.8691 -0.11066,-0.009 -0.55783,-0.29511 -0.99371,-0.63557 z"
       id="path3216"
       inkscape:connector-curvature="0" />
    <path
       style="fill:#008000"
       d=""
       id="path3218"
       inkscape:connector-curvature="0"
       transform="translate(0,468)" />
    <path
       style="fill:#008000"
       d="m 153.30769,603.26776 c 0.85922,-0.88448 0.97271,-0.91366 1.20042,-0.30881 0.30071,0.79877 0.40635,0.69094 -0.99676,1.01742 l -1.15259,0.2682 0.94893,-0.97681 0,0 z"
       id="path3220"
       inkscape:connector-curvature="0" />
    <path
       style="fill:#008000"
       d="m 169.73661,642.20584 c -0.5772,-0.29239 -1.04945,-0.58733 -1.04945,-0.65547 0,-0.0681 1.29666,-1.16081 2.88149,-2.42814 l 2.88147,-2.30422 0,1.47683 c 0,1.30771 -0.20979,1.64665 -1.83202,2.95971 -1.74963,1.41617 -1.87923,1.45896 -2.88149,0.95129 z"
       id="path3222"
       inkscape:connector-curvature="0" />
    <path
       style="fill:#008000"
       d="m 178.99794,634.3028 c -0.10163,-1.03028 0.0325,-1.55417 0.46491,-1.8152 0.33429,-0.20183 3.07755,-2.39058 6.09617,-4.8639 3.01861,-2.47333 5.61719,-4.49695 5.77464,-4.49695 0.15744,0 0.58514,0.31928 0.95044,0.70951 0.64177,0.68556 0.44594,0.88997 -5.79946,6.0535 -3.55501,2.93919 -6.66169,5.46038 -6.90374,5.60263 -0.29374,0.17263 -0.48761,-0.22302 -0.58296,-1.18959 z"
       id="path3224"
       inkscape:connector-curvature="0" />
    <path
       style="fill:#008000"
       d="m 179.06049,643.00032 0,-1.29995 11.47525,-5.54926 11.47525,-5.54924 0.43487,0.92273 c 0.23919,0.50748 0.43489,0.99791 0.43489,1.08979 0,0.0919 -5.35956,2.75881 -11.91013,5.92647 l -11.91013,5.75941 0,-1.29995 z"
       id="path3226"
       inkscape:connector-curvature="0" />
    <path
       style="fill:#008000"
       d="m 193.25598,663.01005 c -6.43401,-5.24107 -12.26944,-10.01035 -12.96762,-10.59842 -1.12402,-0.94673 -1.25605,-1.25375 -1.1526,-2.68022 l 0.11684,-1.61099 12.67852,10.37418 c 6.97319,5.70579 13.14171,10.73747 13.70782,11.18147 l 1.02932,0.80731 -0.85705,1.02795 -0.85703,1.02796 -11.6982,-9.52924 z"
       id="path3228"
       inkscape:connector-curvature="0" />
    <path
       style="fill:#008000"
       d="m 127.26968,590.94556 c -0.30231,-0.54954 -0.18074,-0.83407 0.59764,-1.39872 l 0.97715,-0.70884 -0.27621,1.08026 c -0.3783,1.47948 -0.84618,1.84962 -1.29858,1.0273 z"
       id="path3230"
       inkscape:connector-curvature="0" />
    <path
       style="fill:#008000"
       d=""
       id="path3232"
       inkscape:connector-curvature="0"
       transform="translate(0,468)" />
    <path
       style="fill:#008000"
       d=""
       id="path3234"
       inkscape:connector-curvature="0"
       transform="translate(0,468)" />
    <path
       style="fill:#008000"
       d=""
       id="path3236"
       inkscape:connector-curvature="0"
       transform="translate(0,468)" />
    <path
       style="fill:#008000"
       d="m 169.30021,642.9566 c -0.17388,-0.43805 -0.0735,-0.53763 0.37451,-0.37142 0.33664,0.12489 0.69458,0.22706 0.79544,0.22706 0.10083,0 0.0764,0.16714 -0.0541,0.37143 -0.35241,0.55126 -0.84683,0.45065 -1.11584,-0.22707 z"
       id="path3238"
       inkscape:connector-curvature="0" />
    <text
       xml:space="preserve"
       style="font-size:40px;font-style:normal;font-weight:normal;line-height:125%;letter-spacing:0px;word-spacing:0px;fill:#808080;fill-opacity:1;stroke:none;font-family:Sans"
       x="260.07672"
       y="674.66193"
       id="text3376"
       sodipodi:linespacing="125%"><tspan
         sodipodi:role="line"
         id="tspan3378"
         x="260.07672"
         y="674.66193"
         style="font-size:200px;font-style:normal;font-variant:normal;font-weight:normal;font-stretch:normal;fill:#808080;font-family:Ubuntu;-inkscape-font-specification:Ubuntu">Byobu</tspan></text>
  </g>
</svg>
