<?xml version="1.0" encoding="UTF-8" standalone="no"?>
<!-- Created with Inkscape (http://www.inkscape.org/) -->

<svg
   xmlns:dc="http://purl.org/dc/elements/1.1/"
   xmlns:cc="http://creativecommons.org/ns#"
   xmlns:rdf="http://www.w3.org/1999/02/22-rdf-syntax-ns#"
   xmlns:svg="http://www.w3.org/2000/svg"
   xmlns="http://www.w3.org/2000/svg"
   xmlns:sodipodi="http://sodipodi.sourceforge.net/DTD/sodipodi-0.dtd"
   xmlns:inkscape="http://www.inkscape.org/namespaces/inkscape"
   width="300"
   height="300"
   id="svg6345"
   version="1.1"
   inkscape:version="0.48.4 r9939"
   sodipodi:docname="byobu.svg">
  <defs
     id="defs6347">
    <inkscape:perspective
       sodipodi:type="inkscape:persp3d"
       inkscape:vp_x="0 : 384 : 1"
       inkscape:vp_y="0 : 1000 : 0"
       inkscape:vp_z="1024 : 384 : 1"
       inkscape:persp3d-origin="512 : 256 : 1"
       id="perspective6353" />
    <inkscape:perspective
       id="perspective6363"
       inkscape:persp3d-origin="0.5 : 0.33333333 : 1"
       inkscape:vp_z="1 : 0.5 : 1"
       inkscape:vp_y="0 : 1000 : 0"
       inkscape:vp_x="0 : 0.5 : 1"
       sodipodi:type="inkscape:persp3d" />
  </defs>
  <sodipodi:namedview
     id="base"
     pagecolor="#ffffff"
     bordercolor="#666666"
     borderopacity="1.0"
     inkscape:pageopacity="0.0"
     inkscape:pageshadow="2"
     inkscape:zoom="1.4142136"
     inkscape:cx="203.47116"
     inkscape:cy="169.95817"
     inkscape:current-layer="layer1"
     inkscape:document-units="px"
     showgrid="false"
     inkscape:window-width="1871"
     inkscape:window-height="1056"
     inkscape:window-x="49"
     inkscape:window-y="24"
     inkscape:window-maximized="1" />
  <metadata
     id="metadata6350">
    <rdf:RDF>
      <cc:Work
         rdf:about="">
        <dc:format>image/svg+xml</dc:format>
        <dc:type
           rdf:resource="http://purl.org/dc/dcmitype/StillImage" />
        <dc:title />
      </cc:Work>
    </rdf:RDF>
  </metadata>
  <g
     id="layer1"
     inkscape:label="Layer 1"
     inkscape:groupmode="layer"
     transform="translate(0,-468)">
    <path
       style="fill:#ffcca3;fill-opacity:0.75;stroke:#000000;stroke-width:0.64681846px;stroke-linecap:butt;stroke-linejoin:miter;stroke-opacity:1"
       d="m 11.449154,481.47264 2.651528,272.01508"
       id="path4136" />
    <path
       style="fill:none;stroke:#000000;stroke-width:0.64681846px;stroke-linecap:butt;stroke-linejoin:miter;stroke-opacity:1"
       d="m 10.786272,482.08255 3.31441,272.62495 95.459728,-10.36829 88.8309,13.41779 86.17938,-6.09899 3.97729,-265.91607 -84.85294,-7.3188 -95.46039,14.0277 -97.448378,-10.36829 z"
       id="path4158" />
    <path
       style="fill:#ffcca3;fill-opacity:0.75;stroke:#000000;stroke-width:0.64681846px;stroke-linecap:butt;stroke-linejoin:miter;stroke-opacity:1"
       d="m 108.23465,492.45084 0,252.49828 0,0"
       id="path4162" />
    <path
       style="fill:#ffcca3;fill-opacity:0.15306121;stroke:#000000;stroke-width:0.64681846px;stroke-linecap:butt;stroke-linejoin:miter;stroke-opacity:1"
       d="m 203.69504,477.81325 0,278.72395"
       id="path4164" />
    <path
       style="fill:#f4bd71;fill-opacity:0.11224491;stroke:none"
       d="m 204.07604,617.80486 0,-138.9073 1.82278,0.28888 c 1.00274,0.15888 19.71516,1.81543 41.58285,3.6812 21.86838,1.86578 39.8943,3.51561 40.05819,3.6663 0.53339,0.49112 -3.57137,263.62612 -4.12095,264.13156 -0.29333,0.27008 -18.26532,1.74107 -39.93813,3.26886 l -39.40474,2.77777 0,-138.90727 z"
       id="path4166" />
    <path
       style="fill:#f4bd71;fill-opacity:0.11224491;stroke:none"
       d="m 204.07604,617.80486 0,-138.9073 1.82278,0.28888 c 1.00274,0.15888 19.71516,1.81543 41.58285,3.6812 21.86838,1.86578 39.8943,3.51561 40.05819,3.6663 0.53339,0.49112 -3.57137,263.62612 -4.12095,264.13156 -0.29333,0.27008 -18.26532,1.74107 -39.93813,3.26886 l -39.40474,2.77777 0,-138.90727 z"
       id="path4168" />
    <path
       style="fill:#f4bd71;fill-opacity:0.11224491;stroke:none"
       d="m 204.07604,617.80486 0,-138.9073 1.82278,0.28888 c 1.00274,0.15888 19.71516,1.81543 41.58285,3.6812 21.86838,1.86578 39.8943,3.51561 40.05819,3.6663 0.53339,0.49112 -3.57137,263.62612 -4.12095,264.13156 -0.29333,0.27008 -18.26532,1.74107 -39.93813,3.26886 l -39.40474,2.77777 0,-138.90727 z"
       id="path4170" />
    <path
       style="fill:#f4bd71;fill-opacity:0.11224491;stroke:none"
       d="m 204.07604,617.80486 0,-138.9073 1.82278,0.28888 c 1.00274,0.15888 19.71516,1.81543 41.58285,3.6812 21.86838,1.86578 39.8943,3.51561 40.05819,3.6663 0.53339,0.49112 -3.57137,263.62612 -4.12095,264.13156 -0.29333,0.27008 -18.26532,1.74107 -39.93813,3.26886 l -39.40474,2.77777 0,-138.90727 z"
       id="path4172" />
    <path
       style="fill:#ffcca3;fill-opacity:0.15306121;stroke:none"
       d="m 154.3572,750.54423 c -22.78815,-3.46598 -42.4022,-6.46701 -43.58702,-6.66899 l -2.15453,-0.36718 0,-125.30664 c 0,-68.91867 0.22993,-125.30666 0.51116,-125.30666 0.28051,0 21.0281,-3.01901 46.10434,-6.70889 25.0769,-3.6899 46.02681,-6.70889 46.55617,-6.70889 0.83888,0 0.96231,17.86713 0.96231,138.75206 l 0,138.75208 -3.4803,-0.0675 c -1.91381,-0.0372 -22.12464,-2.90336 -44.91213,-6.36933 l 0,0 z"
       id="path4176" />
    <path
       style="fill:#ffcca3;fill-opacity:0.15306121;stroke:none"
       d="m 154.3572,750.54423 c -22.78815,-3.46598 -42.4022,-6.46701 -43.58702,-6.66899 l -2.15453,-0.36718 0,-125.30664 c 0,-68.91867 0.22993,-125.30666 0.51116,-125.30666 0.28051,0 21.0281,-3.01901 46.10434,-6.70889 25.0769,-3.6899 46.02681,-6.70889 46.55617,-6.70889 0.83888,0 0.96231,17.86713 0.96231,138.75206 l 0,138.75208 -3.4803,-0.0675 c -1.91381,-0.0372 -22.12464,-2.90336 -44.91213,-6.36933 l 0,0 z"
       id="path4178" />
    <path
       style="fill:#ffcca3;fill-opacity:0.15306121;stroke:none"
       d="m 154.3572,750.54423 c -22.78815,-3.46598 -42.4022,-6.46701 -43.58702,-6.66899 l -2.15453,-0.36718 0,-125.30664 c 0,-68.91867 0.22993,-125.30666 0.51116,-125.30666 0.28051,0 21.0281,-3.01901 46.10434,-6.70889 25.0769,-3.6899 46.02681,-6.70889 46.55617,-6.70889 0.83888,0 0.96231,17.86713 0.96231,138.75206 l 0,138.75208 -3.4803,-0.0675 c -1.91381,-0.0372 -22.12464,-2.90336 -44.91213,-6.36933 l 0,0 z"
       id="path4180" />
    <path
       style="fill:#ffcca3;fill-opacity:0.15306121;stroke:none"
       d="m 154.3572,750.54423 c -22.78815,-3.46598 -42.4022,-6.46701 -43.58702,-6.66899 l -2.15453,-0.36718 0,-125.30664 c 0,-68.91867 0.22993,-125.30666 0.51116,-125.30666 0.28051,0 21.0281,-3.01901 46.10434,-6.70889 25.0769,-3.6899 46.02681,-6.70889 46.55617,-6.70889 0.83888,0 0.96231,17.86713 0.96231,138.75206 l 0,138.75208 -3.4803,-0.0675 c -1.91381,-0.0372 -22.12464,-2.90336 -44.91213,-6.36933 l 0,0 z"
       id="path4182" />
    <path
       style="fill:#f4bd71;fill-opacity:0.11224491;stroke:none"
       d="m 204.07604,617.80486 0,-138.9073 1.82278,0.28888 c 1.00274,0.15888 19.71516,1.81543 41.58285,3.6812 21.86838,1.86578 39.8943,3.51561 40.05819,3.6663 0.53339,0.49112 -3.57137,263.62612 -4.12095,264.13156 -0.29333,0.27008 -18.26532,1.74107 -39.93813,3.26886 l -39.40474,2.77777 0,-138.90727 z"
       id="path4184" />
    <path
       style="fill:#f4bd71;fill-opacity:0.11224491;stroke:none"
       d="m 204.07604,617.80486 0,-138.9073 1.82278,0.28888 c 1.00274,0.15888 19.71516,1.81543 41.58285,3.6812 21.86838,1.86578 39.8943,3.51561 40.05819,3.6663 0.53339,0.49112 -3.57137,263.62612 -4.12095,264.13156 -0.29333,0.27008 -18.26532,1.74107 -39.93813,3.26886 l -39.40474,2.77777 0,-138.90727 z"
       id="path4186" />
    <path
       style="fill:#ffcca3;fill-opacity:0;stroke:#000000;stroke-width:6.46818446999999974;stroke-miterlimit:4;stroke-opacity:1;stroke-dasharray:none"
       d="m 204.07604,617.80486 0,-138.9073 1.82278,0.28888 c 1.00274,0.15888 19.71516,1.81543 41.58285,3.6812 21.86838,1.86578 39.8943,3.51561 40.05819,3.6663 0.53339,0.49112 -3.57137,263.62612 -4.12095,264.13156 -0.29333,0.27008 -18.26532,1.74107 -39.93813,3.26886 l -39.40474,2.77777 0,-138.90727 z"
       id="path4188" />
    <path
       style="fill:#ffcca3;fill-opacity:0.19607843;stroke:#000000;stroke-width:6.46818446999999974;stroke-miterlimit:4;stroke-opacity:1;stroke-dasharray:none"
       d="m 154.3572,750.54423 c -22.78815,-3.46598 -42.4022,-6.46701 -43.58702,-6.66899 l -2.15453,-0.36718 0,-125.30664 c 0,-68.91867 0.22993,-125.30666 0.51116,-125.30666 0.28051,0 21.0281,-3.01901 46.10434,-6.70889 25.0769,-3.6899 46.02681,-6.70889 46.55617,-6.70889 0.83888,0 0.96231,17.86713 0.96231,138.75206 l 0,138.75208 -3.4803,-0.0675 c -1.91381,-0.0372 -22.12464,-2.90336 -44.91213,-6.36933 l 0,0 z"
       id="path4700" />
    <path
       style="fill:#ffcca3;fill-opacity:1;fill-rule:nonzero;stroke:#000000;stroke-width:6.46818446999999974;stroke-miterlimit:4;stroke-opacity:1;stroke-dasharray:none"
       d="m 14.428415,729.38319 c -0.02697,-13.50164 -0.565102,-74.36198 -1.190221,-135.24516 -0.625793,-60.88319 -1.043213,-110.81662 -0.9279,-110.96317 0.173981,-0.22169 71.495492,7.14453 89.510646,9.24487 l 5.46895,0.63762 0,125.55795 c 0,108.87053 -0.12679,125.55793 -0.95421,125.55793 -0.52532,0 -21.14546,2.19564 -45.822467,4.87921 -24.677689,2.68354 -45.129925,4.87919 -45.449566,4.87919 -0.323686,0 -0.605562,-10.9082 -0.635232,-24.54844 l 0,0 z"
       id="path4702" />
    <path
       style="fill:none;stroke:#000000;stroke-width:5.82136583000000041;stroke-linecap:butt;stroke-linejoin:miter;stroke-miterlimit:4;stroke-opacity:0.68627453;stroke-dasharray:none"
       d="m 257.39118,746.16891 -56.34833,-47.57214 -34.47122,-16.46727 -19.88781,-42.08306 -33.80834,-31.10485 -0.66287,-18.29698 11.26901,-43.91274"
       id="path6195" />
    <path
       style="fill:none;stroke:#000000;stroke-width:5.17454766999999993;stroke-linecap:butt;stroke-linejoin:miter;stroke-miterlimit:4;stroke-opacity:0.58823532;stroke-dasharray:none"
       d="M 198.39131,696.15717 251.42458,669.9315"
       id="path6197" />
    <path
       style="fill:none;stroke:#000000;stroke-width:5.17454766999999993;stroke-linecap:butt;stroke-linejoin:miter;stroke-miterlimit:4;stroke-opacity:0.58823532;stroke-dasharray:none"
       d="m 189.11096,691.27797 43.08936,-36.59393"
       id="path6199" />
    <path
       style="fill:none;stroke:#000000;stroke-width:3.23409223999999984;stroke-linecap:butt;stroke-linejoin:miter;stroke-miterlimit:4;stroke-opacity:0.58823532;stroke-dasharray:none"
       d="m 177.17841,686.3988 -37.1234,26.22565"
       id="path6201" />
    <path
       style="fill:none;stroke:#000000;stroke-width:4.90143967000000025;stroke-linecap:butt;stroke-linejoin:miter;stroke-miterlimit:4;stroke-opacity:0.68627453;stroke-dasharray:none"
       d="m 164.3881,674.90693 -40.68935,18.63143 -24.412679,-20.37814 -65.10337,4.07564"
       id="path6203" />
    <path
       style="fill:none;stroke:#000000;stroke-width:5.17454766999999993;stroke-linecap:butt;stroke-linejoin:miter;stroke-miterlimit:4;stroke-opacity:0.68627453;stroke-dasharray:none"
       d="m 145.35806,637.60686 30.49392,-36.59395 58.99987,-39.64347 20.55068,-3.04948 0.66289,0"
       id="path6205" />
    <path
       style="fill:none;stroke:#000000;stroke-width:4.52772902999999971;stroke-linecap:butt;stroke-linejoin:miter;stroke-miterlimit:4;stroke-opacity:0.58823532;stroke-dasharray:none"
       d="m 161.2679,617.48018 -6.62883,-25.61576 29.16815,-15.85739"
       id="path6207" />
    <path
       style="fill:none;stroke:#000000;stroke-width:3.23409223999999984;stroke-linecap:butt;stroke-linejoin:miter;stroke-miterlimit:4;stroke-opacity:0.58823532;stroke-dasharray:none"
       d="m 171.21179,583.32581 -0.66287,-26.83555 18.56204,1.21979 53.03327,-45.74245"
       id="path6209" />
    <path
       style="fill:none;stroke:#000000;stroke-width:3.23409223999999984;stroke-linecap:butt;stroke-linejoin:miter;stroke-miterlimit:4;stroke-opacity:0.58823532;stroke-dasharray:none"
       d="M 112.21261,593.08421 144.0323,563.80906"
       id="path6211" />
    <path
       style="fill:none;stroke:#000000;stroke-width:4.52772902999999971;stroke-linecap:butt;stroke-linejoin:miter;stroke-miterlimit:4;stroke-opacity:0.68627453;stroke-dasharray:none"
       d="M 111.54971,598.57331 83.043776,609.5515 49.898335,583.32581 37.965784,581.49612"
       id="path6213" />
    <path
       style="fill:none;stroke:#000000;stroke-width:3.23409223999999984;stroke-linecap:butt;stroke-linejoin:miter;stroke-miterlimit:4;stroke-opacity:0.58823532;stroke-dasharray:none"
       d="m 113.53837,585.15554 -45.741549,-24.396 -27.842392,1.21981 4.640176,-20.73657"
       id="path6215" />
    <path
       sodipodi:type="arc"
       style="fill:#aa0000;fill-opacity:1;fill-rule:nonzero;stroke:none"
       id="path6251"
       sodipodi:cx="17087.881"
       sodipodi:cy="140.57626"
       sodipodi:rx="9.3389826"
       sodipodi:ry="9.8305082"
       d="m 17097.22,140.57626 c 0,5.42924 -4.181,9.83051 -9.339,9.83051 -5.158,0 -9.339,-4.40127 -9.339,-9.83051 0,-5.42924 4.181,-9.8305 9.339,-9.8305 5.158,0 9.339,4.40126 9.339,9.8305 z"
       transform="matrix(0.67434588,0,0,0.62041473,-11257.465,468.05486)" />
    <path
       sodipodi:type="arc"
       style="fill:#aa0000;fill-opacity:1;fill-rule:nonzero;stroke:none"
       id="path6253"
       sodipodi:cx="17057.898"
       sodipodi:cy="167.61017"
       sodipodi:rx="6.8813558"
       sodipodi:ry="8.3559322"
       d="m 17064.78,167.61017 c 0,4.61485 -3.081,8.35593 -6.882,8.35593 -3.8,0 -6.881,-3.74108 -6.881,-8.35593 0,-4.61486 3.081,-8.35593 6.881,-8.35593 3.801,0 6.882,3.74107 6.882,8.35593 z"
       transform="matrix(0.67434588,0,0,0.62041473,-11244.206,466.22518)" />
    <path
       sodipodi:type="arc"
       style="fill:#aa0000;fill-opacity:1;fill-rule:nonzero;stroke:none"
       id="path6255"
       sodipodi:cx="17034.305"
       sodipodi:cy="147.45763"
       sodipodi:rx="11.79661"
       sodipodi:ry="10.81356"
       d="m 17046.101,147.45763 c 0,5.97216 -5.281,10.81356 -11.796,10.81356 -6.515,0 -11.797,-4.8414 -11.797,-10.81356 0,-5.97217 5.282,-10.81356 11.797,-10.81356 6.515,0 11.796,4.84139 11.796,10.81356 z"
       transform="matrix(0.67434588,0,0,0.62041473,-11241.555,455.24697)" />
    <path
       sodipodi:type="arc"
       style="fill:#aa0000;fill-opacity:1;fill-rule:nonzero;stroke:none"
       id="path6257"
       sodipodi:cx="17060.848"
       sodipodi:cy="110.10169"
       sodipodi:rx="6.8813558"
       sodipodi:ry="8.8474579"
       d="m 17067.729,110.10169 c 0,4.88632 -3.081,8.84746 -6.881,8.84746 -3.801,0 -6.882,-3.96114 -6.882,-8.84746 0,-4.88631 3.081,-8.84746 6.882,-8.84746 3.8,0 6.881,3.96115 6.881,8.84746 z"
       transform="matrix(0.67434588,0,0,0.62041473,-11262.769,455.24697)" />
    <path
       sodipodi:type="arc"
       style="fill:#aa0000;fill-opacity:1;fill-rule:nonzero;stroke:none"
       id="path6259"
       sodipodi:cx="17020.051"
       sodipodi:cy="110.10169"
       sodipodi:rx="10.322034"
       sodipodi:ry="9.8305082"
       d="m 17030.373,110.10169 c 0,5.42924 -4.622,9.83051 -10.322,9.83051 -5.701,0 -10.322,-4.40127 -10.322,-9.83051 0,-5.42924 4.621,-9.83051 10.322,-9.83051 5.7,0 10.322,4.40127 10.322,9.83051 z"
       transform="matrix(0.67434588,0,0,0.62041473,-11253.488,446.09849)" />
    <path
       sodipodi:type="arc"
       style="fill:#aa0000;fill-opacity:1;fill-rule:nonzero;stroke:none"
       id="path6261"
       sodipodi:cx="17021.033"
       sodipodi:cy="256.57626"
       sodipodi:rx="5.4067798"
       sodipodi:ry="4.9152541"
       d="m 17026.44,256.57626 c 0,2.71462 -2.421,4.91526 -5.407,4.91526 -2.986,0 -5.407,-2.20064 -5.407,-4.91526 0,-2.71462 2.421,-4.91525 5.407,-4.91525 2.986,0 5.407,2.20063 5.407,4.91525 z"
       transform="matrix(0.67434588,0,0,0.62041473,-11246.196,504.64882)" />
    <path
       sodipodi:type="arc"
       style="fill:#aa0000;fill-opacity:1;fill-rule:nonzero;stroke:none"
       id="path6263"
       sodipodi:cx="17026.932"
       sodipodi:cy="282.62711"
       sodipodi:rx="10.322034"
       sodipodi:ry="9.3389826"
       d="m 17037.254,282.62711 c 0,5.15777 -4.622,9.33898 -10.322,9.33898 -5.701,0 -10.322,-4.18121 -10.322,-9.33898 0,-5.15778 4.621,-9.33899 10.322,-9.33899 5.7,0 10.322,4.18121 10.322,9.33899 z"
       transform="matrix(0.67434588,0,0,0.62041473,-11246.196,470.49447)" />
    <path
       sodipodi:type="arc"
       style="fill:#aa0000;fill-opacity:1;fill-rule:nonzero;stroke:none"
       id="path6265"
       sodipodi:cx="17041.186"
       sodipodi:cy="307.2034"
       sodipodi:rx="9.8305082"
       sodipodi:ry="10.322034"
       d="m 17051.016,307.2034 c 0,5.7007 -4.401,10.32203 -9.83,10.32203 -5.43,0 -9.831,-4.62133 -9.831,-10.32203 0,-5.7007 4.401,-10.32203 9.831,-10.32203 5.429,0 9.83,4.62133 9.83,10.32203 z"
       transform="matrix(0.67434588,0,0,0.62041473,-11271.388,460.12617)" />
    <path
       sodipodi:type="arc"
       style="fill:#aa0000;fill-opacity:1;fill-rule:nonzero;stroke:none"
       id="path6267"
       sodipodi:cx="17076.576"
       sodipodi:cy="335.71185"
       sodipodi:rx="11.79661"
       sodipodi:ry="8.3559322"
       d="m 17088.373,335.71185 c 0,4.61486 -5.282,8.35594 -11.797,8.35594 -6.515,0 -11.796,-3.74108 -11.796,-8.35594 0,-4.61485 5.281,-8.35593 11.796,-8.35593 6.515,0 11.797,3.74108 11.797,8.35593 z"
       transform="matrix(0.67434588,0,0,0.62041473,-11253.488,466.22518)" />
    <path
       sodipodi:type="arc"
       style="fill:#aa0000;fill-opacity:1;fill-rule:nonzero;stroke:none"
       id="path6269"
       sodipodi:cx="17029.881"
       sodipodi:cy="360.77966"
       sodipodi:rx="5.4067798"
       sodipodi:ry="3.9322033"
       d="m 17035.288,360.77966 c 0,2.1717 -2.421,3.93221 -5.407,3.93221 -2.986,0 -5.407,-1.76051 -5.407,-3.93221 0,-2.17169 2.421,-3.9322 5.407,-3.9322 2.986,0 5.407,1.76051 5.407,3.9322 z"
       transform="matrix(0.67434588,0,0,0.62041473,-11296.577,358.273)" />
    <path
       sodipodi:type="arc"
       style="fill:#aa0000;fill-opacity:1;fill-rule:nonzero;stroke:none"
       id="path6271"
       sodipodi:cx="17042.66"
       sodipodi:cy="354.88135"
       sodipodi:rx="8.3559322"
       sodipodi:ry="6.8813558"
       d="m 17051.016,354.88135 c 0,3.80047 -3.741,6.88135 -8.356,6.88135 -4.615,0 -8.356,-3.08088 -8.356,-6.88135 0,-3.80047 3.741,-6.88136 8.356,-6.88136 4.615,0 8.356,3.08089 8.356,6.88136 z"
       transform="matrix(0.67434588,0,0,0.62041473,-11243.543,462.56576)" />
    <path
       sodipodi:type="arc"
       style="fill:#aa0000;fill-opacity:1;fill-rule:nonzero;stroke:none"
       id="path6273"
       sodipodi:cx="16896.186"
       sodipodi:cy="414.35593"
       sodipodi:rx="9.3389826"
       sodipodi:ry="9.3389826"
       d="m 16905.525,414.35593 c 0,5.15777 -4.182,9.33898 -9.339,9.33898 -5.158,0 -9.339,-4.18121 -9.339,-9.33898 0,-5.15778 4.181,-9.33899 9.339,-9.33899 5.157,0 9.339,4.18121 9.339,9.33899 z"
       transform="matrix(0.67434588,0,0,0.62041473,-11260.778,447.9282)" />
    <path
       sodipodi:type="arc"
       style="fill:#aa0000;fill-opacity:1;fill-rule:nonzero;stroke:none"
       id="path6275"
       sodipodi:cx="16954.186"
       sodipodi:cy="339.15256"
       sodipodi:rx="5.4067798"
       sodipodi:ry="9.8305082"
       d="m 16959.592,339.15256 c 0,5.42924 -2.42,9.83051 -5.406,9.83051 -2.987,0 -5.407,-4.40127 -5.407,-9.83051 0,-5.42924 2.42,-9.83051 5.407,-9.83051 2.986,0 5.406,4.40127 5.406,9.83051 z"
       transform="matrix(0.67434588,0,0,0.62041473,-11284.646,507.69831)" />
    <path
       sodipodi:type="arc"
       style="fill:#aa0000;fill-opacity:1;fill-rule:nonzero;stroke:none"
       id="path6277"
       sodipodi:cx="16913.881"
       sodipodi:cy="338.66101"
       sodipodi:rx="9.3389826"
       sodipodi:ry="7.3728814"
       d="m 16923.22,338.66101 c 0,4.07193 -4.181,7.37288 -9.339,7.37288 -5.158,0 -9.339,-3.30095 -9.339,-7.37288 0,-4.07193 4.181,-7.37288 9.339,-7.37288 5.158,0 9.339,3.30095 9.339,7.37288 z"
       transform="matrix(0.67434588,0,0,0.62041473,-11166.645,294.23359)" />
    <path
       sodipodi:type="arc"
       style="fill:#aa0000;fill-opacity:1;fill-rule:nonzero;stroke:none"
       id="path6279"
       sodipodi:cx="16954.186"
       sodipodi:cy="287.54236"
       sodipodi:rx="8.3559322"
       sodipodi:ry="9.3389826"
       d="m 16962.541,287.54236 c 0,5.15778 -3.741,9.33898 -8.355,9.33898 -4.615,0 -8.356,-4.1812 -8.356,-9.33898 0,-5.15778 3.741,-9.33898 8.356,-9.33898 4.614,0 8.355,4.1812 8.355,9.33898 z"
       transform="matrix(0.67434588,0,0,0.62041473,-11282.656,376.56998)" />
    <path
       sodipodi:type="arc"
       style="fill:#aa0000;fill-opacity:1;fill-rule:nonzero;stroke:none"
       id="path6281"
       sodipodi:cx="16923.711"
       sodipodi:cy="260.01694"
       sodipodi:rx="7.3728814"
       sodipodi:ry="9.3389826"
       d="m 16931.084,260.01694 c 0,5.15777 -3.301,9.33898 -7.373,9.33898 -4.072,0 -7.373,-4.18121 -7.373,-9.33898 0,-5.15778 3.301,-9.33899 7.373,-9.33899 4.072,0 7.373,4.18121 7.373,9.33899 z"
       transform="matrix(0.67434588,0,0,0.62041473,-11230.286,405.84515)" />
    <path
       sodipodi:type="arc"
       style="fill:#aa0000;fill-opacity:1;fill-rule:nonzero;stroke:none"
       id="path6283"
       sodipodi:cx="16918.305"
       sodipodi:cy="211.35593"
       sodipodi:rx="8.8474579"
       sodipodi:ry="7.8644066"
       d="m 16927.152,211.35593 c 0,4.34339 -3.961,7.8644 -8.847,7.8644 -4.887,0 -8.848,-3.52101 -8.848,-7.8644 0,-4.3434 3.961,-7.86441 8.848,-7.86441 4.886,0 8.847,3.52101 8.847,7.86441 z"
       transform="matrix(0.67434588,0,0,0.62041473,-11257.465,437.55991)" />
    <path
       sodipodi:type="arc"
       style="fill:#aa0000;fill-opacity:1;fill-rule:nonzero;stroke:none"
       id="path6287"
       sodipodi:cx="16891.764"
       sodipodi:cy="131.72882"
       sodipodi:rx="12.779661"
       sodipodi:ry="9.8305082"
       d="m 16904.543,131.72882 c 0,5.42924 -5.721,9.83051 -12.779,9.83051 -7.058,0 -12.78,-4.40127 -12.78,-9.83051 0,-5.42924 5.722,-9.83051 12.78,-9.83051 7.058,0 12.779,4.40127 12.779,9.83051 z"
       transform="matrix(0.33717295,0,0,0.74449769,-5576.2721,438.90168)" />
    <path
       sodipodi:type="arc"
       style="fill:#aa0000;fill-opacity:1;fill-rule:nonzero;stroke:none"
       id="path6289"
       sodipodi:cx="16760.033"
       sodipodi:cy="129.27118"
       sodipodi:rx="9.8305082"
       sodipodi:ry="13.271187"
       d="m 16769.864,129.27118 c 0,7.32947 -4.402,13.27119 -9.831,13.27119 -5.429,0 -9.83,-5.94172 -9.83,-13.27119 0,-7.32947 4.401,-13.27119 9.83,-13.27119 5.429,0 9.831,5.94172 9.831,13.27119 z"
       transform="matrix(0.67434588,0,0,0.62041473,-11268.735,462.56576)" />
    <path
       sodipodi:type="arc"
       style="fill:#aa0000;fill-opacity:1;fill-rule:nonzero;stroke:none"
       id="path6291"
       sodipodi:cx="16805.254"
       sodipodi:cy="191.20338"
       sodipodi:rx="14.745763"
       sodipodi:ry="12.288136"
       d="m 16820,191.20338 c 0,6.78655 -6.602,12.28814 -14.746,12.28814 -8.144,0 -14.746,-5.50159 -14.746,-12.28814 0,-6.78655 6.602,-12.28813 14.746,-12.28813 8.144,0 14.746,5.50158 14.746,12.28813 z"
       transform="matrix(0.58443311,0,0,0.39706542,-9776.2887,497.64718)" />
    <path
       sodipodi:type="arc"
       style="fill:#aa0000;fill-opacity:1;fill-rule:nonzero;stroke:none"
       id="path6293"
       sodipodi:cx="16762.492"
       sodipodi:cy="220.69492"
       sodipodi:rx="12.288136"
       sodipodi:ry="10.322034"
       d="m 16774.78,220.69492 c 0,5.7007 -5.501,10.32203 -12.288,10.32203 -6.786,0 -12.288,-4.62133 -12.288,-10.32203 0,-5.70071 5.502,-10.32204 12.288,-10.32204 6.787,0 12.288,4.62133 12.288,10.32204 z"
       transform="matrix(0.67434588,0,0,0.62041473,-11263.432,455.85688)" />
    <path
       sodipodi:type="arc"
       style="fill:#aa0000;fill-opacity:1;fill-rule:nonzero;stroke:none"
       id="path6295"
       sodipodi:cx="16818.033"
       sodipodi:cy="308.67798"
       sodipodi:rx="8.8474579"
       sodipodi:ry="6.8813558"
       d="m 16826.881,308.67798 c 0,3.80047 -3.961,6.88135 -8.848,6.88135 -4.886,0 -8.847,-3.08088 -8.847,-6.88135 0,-3.80047 3.961,-6.88136 8.847,-6.88136 4.887,0 8.848,3.08089 8.848,6.88136 z"
       transform="matrix(0.67434588,0,0,0.62041473,-11299.228,339.36613)" />
    <path
       sodipodi:type="arc"
       style="fill:#aa0000;fill-opacity:1;fill-rule:nonzero;stroke:none"
       id="path6297"
       sodipodi:cx="16831.305"
       sodipodi:cy="331.28815"
       sodipodi:rx="6.3898306"
       sodipodi:ry="9.8305082"
       d="m 16837.695,331.28815 c 0,5.42924 -2.861,9.83051 -6.39,9.83051 -3.529,0 -6.39,-4.40127 -6.39,-9.83051 0,-5.42924 2.861,-9.83051 6.39,-9.83051 3.529,0 6.39,4.40127 6.39,9.83051 z"
       transform="matrix(0.67434588,0,0,0.62041473,-11319.779,374.13038)" />
    <path
       sodipodi:type="arc"
       style="fill:#aa0000;fill-opacity:1;fill-rule:nonzero;stroke:none"
       id="path6299"
       sodipodi:cx="16810.66"
       sodipodi:cy="382.89832"
       sodipodi:rx="6.3898306"
       sodipodi:ry="6.3898306"
       d="m 16817.05,382.89832 c 0,3.529 -2.861,6.38983 -6.39,6.38983 -3.529,0 -6.39,-2.86083 -6.39,-6.38983 0,-3.52901 2.861,-6.38984 6.39,-6.38984 3.529,0 6.39,2.86083 6.39,6.38984 z"
       transform="matrix(0.67434588,0,0,0.62041473,-11144.768,336.92653)" />
    <path
       sodipodi:type="arc"
       style="fill:#aa0000;fill-opacity:1;fill-rule:nonzero;stroke:none"
       id="path6311"
       sodipodi:cx="16826.881"
       sodipodi:cy="393.71185"
       sodipodi:rx="8.8474579"
       sodipodi:ry="8.3559322"
       d="m 16835.728,393.71185 c 0,4.61486 -3.961,8.35594 -8.847,8.35594 -4.886,0 -8.848,-3.74108 -8.848,-8.35594 0,-4.61485 3.962,-8.35593 8.848,-8.35593 4.886,0 8.847,3.74108 8.847,8.35593 z"
       transform="matrix(0.67434588,0,0,0.62041473,-11321.105,440.60941)" />
    <path
       sodipodi:type="arc"
       style="fill:#aa0000;fill-opacity:1;fill-rule:nonzero;stroke:none"
       id="path6313"
       sodipodi:cx="16772.322"
       sodipodi:cy="385.35593"
       sodipodi:rx="21.135593"
       sodipodi:ry="11.79661"
       d="m 16793.458,385.35593 c 0,6.51508 -9.463,11.79661 -21.136,11.79661 -11.673,0 -21.135,-5.28153 -21.135,-11.79661 0,-6.51509 9.462,-11.79661 21.135,-11.79661 11.673,0 21.136,5.28152 21.136,11.79661 z"
       transform="matrix(0.32933172,0,0,0.41360982,-5480.0571,527.62168)" />
    <path
       sodipodi:type="arc"
       style="fill:#aa0000;fill-opacity:1;fill-rule:nonzero;stroke:none"
       id="path6315"
       sodipodi:cx="16786.576"
       sodipodi:cy="348.98306"
       sodipodi:rx="9.8305082"
       sodipodi:ry="7.8644066"
       d="m 16796.407,348.98306 c 0,4.34339 -4.402,7.86441 -9.831,7.86441 -5.429,0 -9.83,-3.52102 -9.83,-7.86441 0,-4.34339 4.401,-7.8644 9.83,-7.8644 5.429,0 9.831,3.52101 9.831,7.8644 z"
       transform="matrix(0.67434588,0,0,0.62041473,-11285.307,450.97768)" />
    <path
       sodipodi:type="arc"
       style="fill:#aa0000;fill-opacity:1;fill-rule:nonzero;stroke:none"
       id="path6317"
       sodipodi:cx="16798.865"
       sodipodi:cy="333.74576"
       sodipodi:rx="6.3898306"
       sodipodi:ry="7.3728814"
       d="m 16805.255,333.74576 c 0,4.07193 -2.861,7.37288 -6.39,7.37288 -3.529,0 -6.39,-3.30095 -6.39,-7.37288 0,-4.07193 2.861,-7.37288 6.39,-7.37288 3.529,0 6.39,3.30095 6.39,7.37288 z"
       transform="matrix(0.67434588,0,0,0.62041473,-11196.478,339.36613)" />
    <path
       sodipodi:type="arc"
       style="fill:#aa0000;fill-opacity:1;fill-rule:nonzero;stroke:none"
       id="path6323"
       sodipodi:cx="16764.457"
       sodipodi:cy="341.11865"
       sodipodi:rx="10.322034"
       sodipodi:ry="7.8644066"
       d="m 16774.779,341.11865 c 0,4.34339 -4.621,7.86441 -10.322,7.86441 -5.701,0 -10.322,-3.52102 -10.322,-7.86441 0,-4.34339 4.621,-7.8644 10.322,-7.8644 5.701,0 10.322,3.52101 10.322,7.8644 z"
       transform="matrix(0.77068099,0,0,0.50408697,-12786.624,363.49527)" />
    <path
       sodipodi:type="arc"
       style="fill:#aa0000;fill-opacity:1;fill-rule:nonzero;stroke:none"
       id="path6325"
       sodipodi:cx="16888.814"
       sodipodi:cy="284.10168"
       sodipodi:rx="6.8813558"
       sodipodi:ry="7.8644066"
       d="m 16895.696,284.10168 c 0,4.3434 -3.081,7.86441 -6.882,7.86441 -3.8,0 -6.881,-3.52101 -6.881,-7.86441 0,-4.34339 3.081,-7.8644 6.881,-7.8644 3.801,0 6.882,3.52101 6.882,7.8644 z"
       transform="matrix(0.67434588,0,0,0.62041473,-11250.836,380.83927)" />
    <path
       sodipodi:type="arc"
       style="fill:#aa0000;fill-opacity:1;fill-rule:nonzero;stroke:none"
       id="path6327"
       sodipodi:cx="17077.068"
       sodipodi:cy="290"
       sodipodi:rx="11.305085"
       sodipodi:ry="14.745763"
       d="m 17088.373,290 c 0,8.14386 -5.061,14.74576 -11.305,14.74576 -6.243,0 -11.305,-6.6019 -11.305,-14.74576 0,-8.14386 5.062,-14.74576 11.305,-14.74576 6.244,0 11.305,6.6019 11.305,14.74576 z"
       transform="matrix(0.67434588,0,0,0.62041473,-11262.104,477.20335)" />
    <path
       sodipodi:type="arc"
       style="fill:#aa0000;fill-opacity:1;fill-rule:nonzero;stroke:none"
       id="path6329"
       sodipodi:cx="16825.898"
       sodipodi:cy="146.96609"
       sodipodi:rx="11.79661"
       sodipodi:ry="7.3728814"
       d="m 16837.695,146.96609 c 0,4.07193 -5.281,7.37289 -11.797,7.37289 -6.515,0 -11.796,-3.30096 -11.796,-7.37289 0,-4.07192 5.281,-7.37288 11.796,-7.37288 6.516,0 11.797,3.30096 11.797,7.37288 z"
       transform="matrix(0.67434588,0,0,0.62041473,-11291.274,447.3183)" />
    <path
       sodipodi:type="arc"
       style="fill:#aa0000;fill-opacity:1;fill-rule:nonzero;stroke:none"
       id="path6331"
       sodipodi:cx="16937.967"
       sodipodi:cy="414.35593"
       sodipodi:rx="7.8644066"
       sodipodi:ry="6.3898306"
       d="m 16945.831,414.35593 c 0,3.529 -3.521,6.38983 -7.864,6.38983 -4.344,0 -7.865,-2.86083 -7.865,-6.38983 0,-3.52901 3.521,-6.38983 7.865,-6.38983 4.343,0 7.864,2.86082 7.864,6.38983 z"
       transform="matrix(0.67434588,0,0,0.62041473,-11285.97,463.17569)" />
    <path
       style="fill:#008000"
       d="m 188.0218,227.18469 c -6.00915,-2.85847 -11.56212,-5.35612 -12.33994,-5.55034 -1.26905,-0.31687 -1.24863,-0.36153 0.19897,-0.43514 2.04804,-0.10414 2.80277,-1.97953 1.37232,-3.40998 -0.99123,-0.99123 -1.29025,-0.96216 -3.1019,0.30161 l -2.00492,1.39859 -3.75537,-1.72731 c -2.80946,-1.29223 -4.05621,-2.36272 -4.94975,-4.25 -0.7113,-1.50237 -0.90838,-2.62419 -0.48727,-2.77361 2.40979,-0.85511 2.64662,-1.42033 1.69633,-4.04833 -0.67881,-1.8772 -1.22997,-2.45785 -2.02187,-2.13002 -2.6517,1.0977 -3.1674,0.35378 -10.52347,-15.18048 l -7.49497,-15.82759 -16.10708,-14.83486 -16.10707,-14.83485 0,-8.58866 c 0,-7.82286 0.1261,-8.66741 1.41421,-9.47185 1.38034,-0.86204 1.41422,-0.70619 1.41422,6.50611 l 0,7.3893 14.44852,13.28394 c 10.17187,9.352 14.24719,13.52654 13.76832,14.10354 -0.84222,1.01481 3.18356,4.6315 4.5652,4.10132 0.63354,-0.24312 3.99431,6.15589 10.69252,20.35886 l 9.76856,20.71341 8.8518,4.23816 c 5.51335,2.63974 9.71893,5.15728 11.15098,6.67518 1.91651,2.0314 2.47687,2.28955 3.36672,1.55104 1.67172,-1.38741 4.90218,0.67044 6.45369,4.11109 0.71537,1.58641 1.15584,3.02922 0.97882,3.20623 -0.17702,0.17702 -5.23842,-2.01689 -11.24757,-4.87536 l 0,0 z"
       id="path3178"
       inkscape:connector-curvature="0"
       transform="translate(0,468)" />
    <path
       style="fill:#008000"
       d="m 112.39581,120.84385 c 0,-0.87989 0.53615,-2.41807 1.19144,-3.41817 1.11718,-1.70503 1.11718,-1.85992 0,-2.48513 -0.65529,-0.36672 -1.19144,-1.25534 -1.19144,-1.97472 0,-1.23779 8.27462,-34.055377 8.65797,-34.337966 0.0995,-0.07333 1.23215,0.150507 2.51706,0.497411 1.73528,0.468496 2.24413,0.941289 1.97826,1.838081 -0.19686,0.66404 -2.46701,9.480495 -5.04477,19.592124 -3.72693,14.61938 -5.03724,18.74354 -6.39768,20.13647 l -1.71084,1.7517 0,-1.5998 z"
       id="path3180"
       inkscape:connector-curvature="0"
       transform="translate(0,468)" />
    <path
       style="fill:#008000"
       d="M 85.172199,103.44598 67.49453,93.996652 55.827268,94.588382 c -6.416994,0.325451 -12.970845,0.607944 -14.564114,0.627763 l -2.896853,0.03603 2.40755,-10.76548 c 1.324153,-5.921014 2.534464,-10.892393 2.68958,-11.047509 0.155116,-0.155117 0.733416,-0.108817 1.28511,0.102888 0.835397,0.320572 0.668138,1.842299 -1.000548,9.102966 -1.101996,4.794926 -2.016956,8.989031 -2.033245,9.320234 -0.01629,0.331201 5.936598,0.379894 13.228637,0.108205 l 13.258251,-0.49398 17.668606,9.440959 c 11.389352,6.08573 17.753078,9.87958 17.906298,10.67517 0.13072,0.67882 -0.0243,1.22644 -0.34449,1.21695 -0.3202,-0.01 -8.537133,-4.26947 -18.259851,-9.4666 z"
       id="path3182"
       inkscape:connector-curvature="0"
       transform="translate(0,468)" />
    <path
       style="fill:#008000"
       d="m 115.93134,121.58953 c 0,-1.02249 4.20195,-5.37128 13.46469,-13.93524 11.91075,-11.012196 14.81958,-13.178271 14.81958,-11.03547 0,0.451427 -18.13136,17.46523 -26.69328,25.048 l -1.59099,1.40904 0,-1.48633 z"
       id="path3186"
       inkscape:connector-curvature="0"
       transform="translate(0,468)" />
    <path
       style="fill:#008000"
       d="M 65.850351,130.32161 C 49.878564,117.68132 49.278886,117.28555 44.957607,116.53303 c -2.446937,-0.42612 -4.979759,-0.77476 -5.628492,-0.77476 -1.199401,0 -1.738508,-3.12467 -0.649186,-3.76268 0.378652,-0.22178 10.195505,1.09311 11.974537,1.6039 0.07177,0.0206 7.181591,5.62739 15.799595,12.45953 8.618003,6.83214 16.080151,12.5798 16.582553,12.77259 0.502401,0.19279 5.422399,-1.38854 10.933329,-3.51407 l 10.019867,-3.8646 -0.21642,2.11043 c -0.20695,2.0181 -0.6495,2.2777 -10.11591,5.93401 -5.444722,2.10297 -10.228865,3.82684 -10.631429,3.83082 -0.402564,0.004 -8.131629,-5.84898 -17.1757,-13.00659 z"
       id="path3188"
       inkscape:connector-curvature="0"
       transform="translate(0,468)" />
    <path
       style="fill:#008000"
       d="m 34.614065,209.09637 c 0,-1.91401 0.224596,-2.12508 2.298097,-2.15973 1.263953,-0.0211 15.972389,-0.90751 32.685411,-1.96974 l 30.387314,-1.93132 2.019923,1.8048 c 1.60991,1.43845 1.97245,2.29122 1.78604,4.20114 l -0.23388,2.39633 -2.22339,-1.87785 c -2.787803,-2.35454 -2.150709,-2.35264 -37.021031,-0.11008 -14.972986,0.96293 -27.780457,1.75461 -28.461047,1.75928 -0.905411,0.006 -1.237437,-0.5607 -1.237437,-2.11283 z"
       id="path3190"
       inkscape:connector-curvature="0"
       transform="translate(0,468)" />
    <path
       style="fill:#008000"
       d="m 117.87589,223.38682 c -4.818,-4.06212 -5.48008,-4.90547 -5.48008,-6.98051 0,-1.29811 0.17735,-2.3602 0.39412,-2.3602 0.21677,0 2.80946,2.03237 5.76154,4.51637 5.25987,4.42588 5.41138,4.49782 7.56083,3.59046 1.20638,-0.50926 9.16664,-4.13323 17.68948,-8.05327 8.52283,-3.92004 15.55964,-7.04718 15.63734,-6.94921 0.0777,0.098 0.50792,0.88315 0.95604,1.74483 0.97975,1.88393 2.51183,1.01294 -19.00797,10.80606 -8.75045,3.9821 -16.3872,7.47995 -16.97057,7.77299 -0.73468,0.36905 -2.74484,-0.88716 -6.54073,-4.08752 z"
       id="path3192"
       inkscape:connector-curvature="0"
       transform="translate(0,468)" />
    <path
       style="fill:#008000"
       d="m 140.44438,244.68741 c -0.25928,-0.25928 -0.47141,-0.70285 -0.47141,-0.98572 0,-0.28287 6.92081,-5.37356 15.37957,-11.31265 8.45877,-5.93909 15.76066,-11.08912 16.22644,-11.44451 0.51197,-0.39064 1.30828,-0.38794 2.01371,0.007 0.93189,0.52151 -2.19053,3.02447 -15.50663,12.43022 -9.17042,6.47747 -16.78526,11.77722 -16.92188,11.77722 -0.13662,0 -0.46053,-0.21213 -0.7198,-0.4714 z"
       id="path3194"
       inkscape:connector-curvature="0"
       transform="translate(0,468)" />
    <path
       style="fill:#008000"
       d="m 161.15209,208.65316 c -0.54642,-1.4372 -0.5007,-2.05844 0.18346,-2.4925 1.37205,-0.87051 1.85157,-0.73177 2.65417,0.7679 0.98684,1.84391 0.94903,2.00189 -0.68891,2.87849 -1.21876,0.65226 -1.52443,0.48811 -2.14872,-1.15389 z"
       id="path3196"
       inkscape:connector-curvature="0"
       transform="translate(0,468)" />
    <path
       style="fill:#008000"
       d="m 174.07416,220.52396 c -0.68587,-0.43528 -0.54913,-0.88963 0.5735,-1.9056 1.23942,-1.12166 1.57335,-1.17343 2.09758,-0.3252 0.3777,0.61112 0.32655,1.36662 -0.12975,1.91642 -0.8712,1.04974 -1.29921,1.10269 -2.54133,0.31438 z"
       id="path3198"
       inkscape:connector-curvature="0"
       transform="translate(0,468)" />
    <path
       style="fill:#008000"
       d="m 158.11043,144.6162 c -2.84784,-9.90354 -5.42514,-21.34338 -4.91605,-21.82084 0.31195,-0.29257 3.84708,-2.3375 7.85586,-4.5443 5.01139,-2.75873 7.55209,-3.79875 8.13173,-3.32867 0.46367,0.37604 1.47944,0.80533 2.25725,0.95398 0.9839,0.18804 -0.95255,1.53385 -6.36396,4.42291 -4.27799,2.28394 -7.87216,4.22625 -7.98704,4.31624 -0.24814,0.19439 3.88058,17.03097 4.67726,19.07347 0.39626,1.01593 0.11132,1.87449 -1.01174,3.04853 l -1.56334,1.63431 -1.07997,-3.75563 z"
       id="path3200"
       inkscape:connector-curvature="0"
       transform="translate(0,468)" />
    <path
       style="fill:#008000"
       d="m 169.6618,101.43936 c -0.005,-5.930857 -0.21284,-11.542605 -0.46118,-12.470551 l -0.45152,-1.687174 10.01642,0.516071 10.01641,0.516071 5.11723,-4.345068 c 4.12789,-3.505017 5.16749,-4.101562 5.3772,-3.085562 0.17328,0.839531 -1.3593,2.733803 -4.5962,5.680911 L 189.824,90.985462 182.39938,90.6002 c -4.08354,-0.211894 -8.18586,-0.542106 -9.11627,-0.733803 l -1.69164,-0.348542 0.51146,10.744995 c 0.51002,10.71468 0.32084,11.9037 -1.90114,11.94906 -0.29168,0.006 -0.53468,-4.84169 -0.53999,-10.77255 z"
       id="path3202"
       inkscape:connector-curvature="0"
       transform="translate(0,468)" />
    <path
       style="fill:#008000"
       d="m 173.20699,113.74998 c 0,-1.86362 0.5359,-2.39914 4.68088,-4.6775 2.57448,-1.41511 4.75876,-2.47846 4.85396,-2.36299 0.0952,0.11547 0.50967,0.85878 0.92104,1.65179 0.67941,1.30973 0.23464,1.7191 -4.85397,4.46756 l -5.60191,3.0257 0,-2.10456 z"
       id="path3204"
       inkscape:connector-curvature="0"
       transform="translate(0,468)" />
    <path
       style="fill:#008000"
       d=""
       id="path3206"
       inkscape:connector-curvature="0"
       transform="translate(0,468)" />
    <path
       style="fill:#008000"
       d="m 169.67146,114.48548 c 0,-0.73184 1.5309,-2.26274 2.26274,-2.26274 0.31113,0 0.56568,0.6364 0.56568,1.41421 0,0.94281 -0.4714,1.41422 -1.41421,1.41422 -0.77782,0 -1.41421,-0.25456 -1.41421,-0.56569 z"
       id="path3208"
       inkscape:connector-curvature="0"
       transform="translate(0,468)" />
    <path
       style="fill:#008000"
       d=""
       id="path3210"
       inkscape:connector-curvature="0"
       transform="translate(0,468)" />
    <path
       style="fill:#008000"
       d="m 207.85522,73.404068 c 0,-0.980529 5.11941,-5.853374 16.40105,-15.611141 9.02058,-7.802115 16.73688,-14.073721 17.14734,-13.936902 0.41046,0.13682 0.74629,0.590461 0.74629,1.008093 0,0.620907 -31.20802,28.057768 -33.58582,29.527329 -0.38987,0.240953 -0.70886,-0.203367 -0.70886,-0.987379 z"
       id="path3212"
       inkscape:connector-curvature="0"
       transform="translate(0,468)" />
    <path
       style="fill:#008000"
       d="m 207.85522,111.30385 c 0,-2.23925 0.5333,-2.69193 13.25825,-11.25397 L 234.37173,91.129 244.4259,89.655055 c 5.5298,-0.81067 10.38232,-1.473945 10.78338,-1.473945 0.40106,0 0.7292,0.920099 0.7292,2.044664 0,2.404293 0.20979,2.332117 -11.66726,4.013941 l -8.48528,1.20154 -13.57798,9.097845 c -7.46789,5.00382 -13.7523,9.09785 -13.96536,9.09785 -0.21306,0 -0.38738,-1.04989 -0.38738,-2.3331 z"
       id="path3214"
       inkscape:connector-curvature="0"
       transform="translate(0,468)" />
    <path
       style="fill:#008000"
       d="m 146.64607,167.5498 c -1.438,-1.16184 -1.36427,-1.29067 5.21442,-9.11144 5.46376,-6.49533 7.13766,-8.04298 9.23681,-8.54014 2.35448,-0.55764 2.54519,-0.79049 2.33633,-2.85261 -0.19408,-1.91632 0.58316,-3.21681 5.3033,-8.87348 4.94029,-5.92049 6.82683,-7.50842 17.67163,-14.87452 6.6775,-4.53554 12.32551,-8.24644 12.55114,-8.24644 0.22563,0 0.41024,1.0541 0.41024,2.34245 0,2.23286 -0.52391,2.69853 -11.19883,9.95384 l -11.19883,7.61139 -14.06352,16.91621 c -7.73493,9.30392 -14.23014,16.90205 -14.43379,16.88473 -0.20365,-0.0173 -1.02665,-0.56182 -1.8289,-1.20999 z"
       id="path3216"
       inkscape:connector-curvature="0"
       transform="translate(0,468)" />
    <path
       style="fill:#008000"
       d=""
       id="path3218"
       inkscape:connector-curvature="0"
       transform="translate(0,468)" />
    <path
       style="fill:#008000"
       d="m 160.45778,147.95487 c 1.58137,-1.68382 1.79024,-1.73939 2.20934,-0.58788 0.55345,1.52068 0.74789,1.31538 -1.8345,1.93693 l -2.12132,0.51058 1.74648,-1.85963 0,0 z"
       id="path3220"
       inkscape:connector-curvature="0"
       transform="translate(0,468)" />
    <path
       style="fill:#008000"
       d="m 190.69483,222.08403 c -1.06232,-0.55661 -1.93149,-1.11815 -1.93149,-1.24786 0,-0.12972 2.38648,-2.20989 5.3033,-4.62259 l 5.3033,-4.38674 0,2.81156 c 0,2.48958 -0.38614,3.13485 -3.37181,5.6346 -3.22015,2.69606 -3.45868,2.77752 -5.3033,1.81103 z"
       id="path3222"
       inkscape:connector-curvature="0"
       transform="translate(0,468)" />
    <path
       style="fill:#008000"
       d="m 207.74008,207.03846 c -0.18705,-1.9614 0.0599,-2.95876 0.85567,-3.45572 0.61524,-0.38422 5.66417,-4.5511 11.21984,-9.25974 5.55568,-4.70864 10.33833,-8.56116 10.62811,-8.56116 0.28977,0 1.07695,0.60784 1.74928,1.35076 1.18114,1.30515 0.82072,1.6943 -10.67379,11.52446 -6.54291,5.59554 -12.2607,10.39529 -12.70619,10.66612 -0.5406,0.32865 -0.89744,-0.42457 -1.07292,-2.26472 z"
       id="path3224"
       inkscape:connector-curvature="0"
       transform="translate(0,468)" />
    <path
       style="fill:#008000"
       d="m 207.85522,223.59655 0,-2.47481 21.11992,-10.5645 21.11993,-10.5645 0.80038,1.75666 c 0.44022,0.96616 0.80039,1.89979 0.80039,2.07473 0,0.17494 -9.86414,5.25213 -21.92031,11.28264 l -21.92031,10.96458 0,-2.4748 z"
       id="path3226"
       inkscape:connector-curvature="0"
       transform="translate(0,468)" />
    <path
       style="fill:#008000"
       d="m 233.98168,261.6905 c -11.84165,-9.9778 -22.58162,-19.05744 -23.86661,-20.17698 -2.06873,-1.80237 -2.31172,-2.38685 -2.12133,-5.10251 l 0.21504,-3.06697 23.33452,19.75005 c 12.83399,10.86253 24.18701,20.44166 25.22894,21.28696 l 1.89442,1.53691 -1.57736,1.957 -1.57736,1.957 -21.53026,-18.14146 z"
       id="path3228"
       inkscape:connector-curvature="0"
       transform="translate(0,468)" />
    <path
       style="fill:#008000"
       d="m 112.53542,124.49625 c -0.5564,-1.04618 -0.33265,-1.58788 1.09994,-2.66284 l 1.79843,-1.34948 -0.50837,2.05659 c -0.69622,2.81657 -1.55737,3.52125 -2.39,1.95573 z"
       id="path3230"
       inkscape:connector-curvature="0"
       transform="translate(0,468)" />
    <path
       style="fill:#008000"
       d=""
       id="path3232"
       inkscape:connector-curvature="0"
       transform="translate(0,468)" />
    <path
       style="fill:#008000"
       d=""
       id="path3234"
       inkscape:connector-curvature="0"
       transform="translate(0,468)" />
    <path
       style="fill:#008000"
       d=""
       id="path3236"
       inkscape:connector-curvature="0"
       transform="translate(0,468)" />
    <path
       style="fill:#008000"
       d="m 189.89163,223.51332 c -0.32001,-0.83394 -0.13523,-1.0235 0.68929,-0.7071 0.61958,0.23775 1.27836,0.43228 1.46396,0.43228 0.1856,0 0.1408,0.3182 -0.0996,0.70711 -0.64861,1.04948 -1.55858,0.85794 -2.05369,-0.43229 z"
       id="path3238"
       inkscape:connector-curvature="0"
       transform="translate(0,468)" />
  </g>
</svg>
