<?xml version="1.0" encoding="UTF-8" standalone="no"?>
<!-- Created with Inkscape (http://www.inkscape.org/) -->

<svg
   xmlns:dc="http://purl.org/dc/elements/1.1/"
   xmlns:cc="http://creativecommons.org/ns#"
   xmlns:rdf="http://www.w3.org/1999/02/22-rdf-syntax-ns#"
   xmlns:svg="http://www.w3.org/2000/svg"
   xmlns="http://www.w3.org/2000/svg"
   xmlns:xlink="http://www.w3.org/1999/xlink"
   xmlns:sodipodi="http://sodipodi.sourceforge.net/DTD/sodipodi-0.dtd"
   xmlns:inkscape="http://www.inkscape.org/namespaces/inkscape"
   id="svg2876"
   version="1.1"
   inkscape:version="0.47pre1 r21720"
   width="64"
   height="64"
   sodipodi:docname="byobu.svg"
   inkscape:output_extension="org.inkscape.output.svg.inkscape">
  <metadata
     id="metadata2882">
    <rdf:RDF>
      <cc:Work
         rdf:about="">
        <dc:format>image/svg+xml</dc:format>
        <dc:type
           rdf:resource="http://purl.org/dc/dcmitype/StillImage" />
        <dc:title></dc:title>
      </cc:Work>
    </rdf:RDF>
  </metadata>
  <defs
     id="defs2880">
    <linearGradient
       inkscape:collect="always"
       id="linearGradient5509">
      <stop
         style="stop-color:#f6d7d7;stop-opacity:1;"
         offset="0"
         id="stop5511" />
      <stop
         style="stop-color:#f6d7d7;stop-opacity:0;"
         offset="1"
         id="stop5513" />
    </linearGradient>
    <linearGradient
       inkscape:collect="always"
       id="linearGradient5489">
      <stop
         style="stop-color:#f6d7d7;stop-opacity:1;"
         offset="0"
         id="stop5491" />
      <stop
         style="stop-color:#f6d7d7;stop-opacity:0;"
         offset="1"
         id="stop5493" />
    </linearGradient>
    <linearGradient
       id="linearGradient3889">
      <stop
         id="stop3897"
         offset="0"
         style="stop-color:#c8b7b7;stop-opacity:0.01020408;" />
      <stop
         style="stop-color:#c8b7b7;stop-opacity:0;"
         offset="1"
         id="stop3893" />
    </linearGradient>
    <inkscape:perspective
       sodipodi:type="inkscape:persp3d"
       inkscape:vp_x="0 : 0.5 : 1"
       inkscape:vp_y="0 : 1000 : 0"
       inkscape:vp_z="1 : 0.5 : 1"
       inkscape:persp3d-origin="0.5 : 0.33333333 : 1"
       id="perspective2884" />
    <linearGradient
       inkscape:collect="always"
       xlink:href="#linearGradient3889"
       id="linearGradient5361"
       x1="5.7272978"
       y1="31.313789"
       x2="24.768126"
       y2="31.313789"
       gradientUnits="userSpaceOnUse" />
    <linearGradient
       inkscape:collect="always"
       xlink:href="#linearGradient5489"
       id="linearGradient5495"
       x1="6.1915741"
       y1="31.320353"
       x2="24.198996"
       y2="31.320353"
       gradientUnits="userSpaceOnUse" />
    <linearGradient
       inkscape:collect="always"
       xlink:href="#linearGradient5509"
       id="linearGradient5515"
       x1="44.133927"
       y1="31.343887"
       x2="59.748691"
       y2="31.343887"
       gradientUnits="userSpaceOnUse" />
  </defs>
  <sodipodi:namedview
     pagecolor="#ffffff"
     bordercolor="#666666"
     borderopacity="1"
     objecttolerance="10"
     gridtolerance="10"
     guidetolerance="10"
     inkscape:pageopacity="0"
     inkscape:pageshadow="2"
     inkscape:window-width="1280"
     inkscape:window-height="754"
     id="namedview2878"
     showgrid="false"
     inkscape:zoom="3.6875"
     inkscape:cx="39.342888"
     inkscape:cy="31.457627"
     inkscape:window-x="0"
     inkscape:window-y="0"
     inkscape:window-maximized="1"
     inkscape:current-layer="svg2876" />
  <path
     style="fill:none;stroke:#000000;stroke-width:1.18294001px;stroke-linecap:butt;stroke-linejoin:miter;stroke-opacity:1"
     d="M 4.9728257,1.4474022 C 5.3534567,61.199116 5.7340865,61.199116 5.7340865,61.199116 L 23.62371,59.036158 42.655225,62.010225 60.164218,60.658377 60.925479,2.5288813 43.797116,1.4474022 24.765601,4.1510996 4.9728257,1.4474022 z"
     id="path2930" />
  <path
     style="fill:none;stroke:#000000;stroke-width:1.18294001px;stroke-linecap:butt;stroke-linejoin:miter;stroke-opacity:1"
     d="M 24.765601,3.3399904 25.526862,59.306528 24.765601,3.3399904 z"
     id="path2934" />
  <path
     style="fill:none;stroke:#000000;stroke-width:1.18294001px;stroke-linecap:butt;stroke-linejoin:miter;stroke-opacity:1"
     d="M 43.797116,1.4474022 42.655225,61.739855 43.797116,1.4474022 z"
     id="path2936" />
  <path
     style="fill:none;stroke:#000000;stroke-width:1px;stroke-linecap:butt;stroke-linejoin:miter;stroke-opacity:1"
     d="M 54.508475,60.20339 43.118644,49.898305 53.966102,43.389831 43.389831,49.084746 42.305085,46.101695 50.169492,40.135593 40.40678,48.813559 38.237288,48 30.915254,53.423729 38.237288,48 l -2.711864,-2.440678 -5.694916,3.79661 -4.067796,-4.338983 -11.118644,1.627119 10.847457,-1.084746 4.067797,5.152542 6.779661,-4.067796 L 32,37.152542 l 6.508475,-8.406779 11.38983,-8.677966 4.881356,-0.81356 -4.338983,0.81356 -10.033898,7.322034 -5.152543,3.79661 -0.271186,-4.338983 2.440678,-1.627119 2.983051,-1.898305 -3.796611,1.627119 -0.271186,-5.694916 5.152542,-0.542373 10.305085,-9.491525 -11.118644,10.033898 -2.711864,0 -0.271187,4.881356 -3.79661,2.711865 1.627119,5.694915 L 32,36.881356 l -6.237288,-6.237288 0.813559,-4.61017 5.694915,-5.423729 -7.864406,7.593221 -1.627119,1.898305 -3.525424,0.271186 -6.237288,-5.152542 5.423729,4.610169 6.779661,-0.813559 -0.813559,-4.610169 -7.864407,-4.338983 -4.881356,-0.271187 0.542373,-4.067796 -1.084746,4.338983 5.966102,0.271186 7.59322,6.237288 L 27.389831,16 24.949153,25.762712 24.677966,26.305085 24.949153,29.830508 32,36.610169 l 4.338983,9.220339 4.61017,2.711865 3.254237,1.898305 10.305085,9.762712 z"
     id="path2938" />
  <path
     sodipodi:type="arc"
     style="fill:#d40000"
     id="path2942"
     sodipodi:cx="36.338982"
     sodipodi:cy="15.457627"
     sodipodi:rx="1.6271186"
     sodipodi:ry="1.3559322"
     d="m 37.9661,15.457627 a 1.6271186,1.3559322 0 1 1 -3.254237,0 1.6271186,1.3559322 0 1 1 3.254237,0 z" />
  <path
     sodipodi:type="arc"
     style="fill:#d40000"
     id="path2944"
     sodipodi:cx="45.559322"
     sodipodi:cy="11.389831"
     sodipodi:rx="1.3559322"
     sodipodi:ry="1.0847458"
     d="m 46.915255,11.389831 a 1.3559322,1.0847458 0 1 1 -2.711865,0 1.3559322,1.0847458 0 1 1 2.711865,0 z" />
  <path
     sodipodi:type="arc"
     style="fill:#d40000"
     id="path2946"
     sodipodi:cx="47.457626"
     sodipodi:cy="16.40678"
     sodipodi:rx="1.3559322"
     sodipodi:ry="1.4915254"
     d="m 48.813559,16.40678 a 1.3559322,1.4915254 0 1 1 -2.711865,0 1.3559322,1.4915254 0 1 1 2.711865,0 z" />
  <path
     sodipodi:type="arc"
     style="fill:#d40000"
     id="path2948"
     sodipodi:cx="54.779659"
     sodipodi:cy="15.18644"
     sodipodi:rx="1.3559322"
     sodipodi:ry="1.0847458"
     d="m 56.135592,15.18644 a 1.3559322,1.0847458 0 1 1 -2.711865,0 1.3559322,1.0847458 0 1 1 2.711865,0 z" />
  <path
     sodipodi:type="arc"
     style="fill:#d40000"
     id="path2950"
     sodipodi:cx="32.542374"
     sodipodi:cy="31.59322"
     sodipodi:rx="1.0847458"
     sodipodi:ry="1.2203389"
     d="m 33.627119,31.59322 a 1.0847458,1.2203389 0 1 1 -2.169491,0 1.0847458,1.2203389 0 1 1 2.169491,0 z" />
  <path
     sodipodi:type="arc"
     style="fill:#d40000"
     id="path2952"
     sodipodi:cx="10.983051"
     sodipodi:cy="14.508474"
     sodipodi:rx="0.94915253"
     sodipodi:ry="1.2203389"
     d="m 11.932204,14.508474 a 0.94915253,1.2203389 0 1 1 -1.898305,0 0.94915253,1.2203389 0 1 1 1.898305,0 z" />
  <path
     sodipodi:type="arc"
     style="fill:#d40000"
     id="path2954"
     sodipodi:cx="10.711864"
     sodipodi:cy="42.033897"
     sodipodi:rx="1.4915254"
     sodipodi:ry="0.81355929"
     d="m 12.20339,42.033897 a 1.4915254,0.81355929 0 1 1 -2.9830509,0 1.4915254,0.81355929 0 1 1 2.9830509,0 z" />
  <path
     sodipodi:type="arc"
     style="fill:#d40000"
     id="path2956"
     sodipodi:cx="15.050847"
     sodipodi:cy="38.64407"
     sodipodi:rx="0.94915253"
     sodipodi:ry="1.2203389"
     d="m 16,38.64407 a 0.94915253,1.2203389 0 1 1 -1.898305,0 0.94915253,1.2203389 0 1 1 1.898305,0 z" />
  <path
     sodipodi:type="arc"
     style="fill:#d40000"
     id="path2958"
     sodipodi:cx="20.067797"
     sodipodi:cy="41.35593"
     sodipodi:rx="0.81355929"
     sodipodi:ry="1.2203389"
     d="m 20.881356,41.35593 a 0.81355929,1.2203389 0 1 1 -1.627119,0 0.81355929,1.2203389 0 1 1 1.627119,0 z" />
  <path
     sodipodi:type="arc"
     style="fill:#d40000"
     id="path2960"
     sodipodi:cx="12.474576"
     sodipodi:cy="48.542374"
     sodipodi:rx="2.1694915"
     sodipodi:ry="1.3559322"
     d="m 14.644068,48.542374 a 2.1694915,1.3559322 0 1 1 -4.338984,0 2.1694915,1.3559322 0 1 1 4.338984,0 z" />
  <path
     sodipodi:type="arc"
     style="fill:#d40000"
     id="path2962"
     sodipodi:cx="19.38983"
     sodipodi:cy="49.762711"
     sodipodi:rx="0.94915253"
     sodipodi:ry="0.94915253"
     d="m 20.338982,49.762711 a 0.94915253,0.94915253 0 1 1 -1.898305,0 0.94915253,0.94915253 0 1 1 1.898305,0 z" />
  <path
     sodipodi:type="arc"
     style="fill:#d40000"
     id="path2964"
     sodipodi:cx="28.745762"
     sodipodi:cy="52.474575"
     sodipodi:rx="1.3559322"
     sodipodi:ry="1.2203389"
     d="m 30.101694,52.474575 a 1.3559322,1.2203389 0 1 1 -2.711864,0 1.3559322,1.2203389 0 1 1 2.711864,0 z" />
  <path
     sodipodi:type="arc"
     style="fill:#d40000"
     id="path2966"
     sodipodi:cx="53.016949"
     sodipodi:cy="42.169491"
     sodipodi:rx="1.4915254"
     sodipodi:ry="0.94915253"
     d="m 54.508474,42.169491 a 1.4915254,0.94915253 0 1 1 -2.983051,0 1.4915254,0.94915253 0 1 1 2.983051,0 z" />
  <path
     sodipodi:type="arc"
     style="fill:#d40000"
     id="path2968"
     sodipodi:cx="48.677967"
     sodipodi:cy="38.101696"
     sodipodi:rx="1.2203389"
     sodipodi:ry="1.2203389"
     d="m 49.898306,38.101696 a 1.2203389,1.2203389 0 1 1 -2.440678,0 1.2203389,1.2203389 0 1 1 2.440678,0 z" />
  <path
     sodipodi:type="arc"
     style="fill:#d40000"
     id="path2970"
     sodipodi:cx="31.322035"
     sodipodi:cy="42.169491"
     sodipodi:rx="1.2203389"
     sodipodi:ry="0.94915253"
     d="m 32.542374,42.169491 a 1.2203389,0.94915253 0 1 1 -2.440678,0 1.2203389,0.94915253 0 1 1 2.440678,0 z" />
  <path
     sodipodi:type="arc"
     style="fill:#d40000"
     id="path2972"
     sodipodi:cx="27.932203"
     sodipodi:cy="34.847458"
     sodipodi:rx="1.0847458"
     sodipodi:ry="0.67796612"
     d="m 29.016949,34.847458 a 1.0847458,0.67796612 0 1 1 -2.169491,0 1.0847458,0.67796612 0 1 1 2.169491,0 z" />
  <path
     sodipodi:type="arc"
     style="fill:#d40000"
     id="path2974"
     sodipodi:cx="31.728813"
     sodipodi:cy="24.949152"
     sodipodi:rx="1.3559322"
     sodipodi:ry="1.0847458"
     d="m 33.084745,24.949152 a 1.3559322,1.0847458 0 1 1 -2.711864,0 1.3559322,1.0847458 0 1 1 2.711864,0 z" />
  <path
     sodipodi:type="arc"
     style="fill:#d40000"
     id="path2976"
     sodipodi:cx="27.525423"
     sodipodi:cy="14.644068"
     sodipodi:rx="1.2203389"
     sodipodi:ry="1.3559322"
     d="m 28.745762,14.644068 a 1.2203389,1.3559322 0 1 1 -2.440678,0 1.2203389,1.3559322 0 1 1 2.440678,0 z" />
  <path
     sodipodi:type="arc"
     style="fill:#d40000"
     id="path2978"
     sodipodi:cx="11.118644"
     sodipodi:cy="26.305084"
     sodipodi:rx="1.3559322"
     sodipodi:ry="1.0847458"
     d="m 12.474576,26.305084 a 1.3559322,1.0847458 0 1 1 -2.7118645,0 1.3559322,1.0847458 0 1 1 2.7118645,0 z" />
  <path
     sodipodi:type="arc"
     style="fill:#d40000"
     id="path2980"
     sodipodi:cx="14.101695"
     sodipodi:cy="43.932205"
     sodipodi:rx="1.0847458"
     sodipodi:ry="0.81355929"
     d="m 15.186441,43.932205 a 1.0847458,0.81355929 0 1 1 -2.169492,0 1.0847458,0.81355929 0 1 1 2.169492,0 z" />
  <path
     sodipodi:type="arc"
     style="fill:#d40000"
     id="path2982"
     sodipodi:cx="12.745763"
     sodipodi:cy="40.135593"
     sodipodi:rx="1.3559322"
     sodipodi:ry="0.81355929"
     d="m 14.101695,40.135593 a 1.3559322,0.81355929 0 1 1 -2.711864,0 1.3559322,0.81355929 0 1 1 2.711864,0 z" />
  <path
     sodipodi:type="arc"
     style="fill:#d40000"
     id="path2984"
     sodipodi:cx="18.576271"
     sodipodi:cy="38.372883"
     sodipodi:rx="0.67796612"
     sodipodi:ry="0.67796612"
     d="m 19.254237,38.372883 a 0.67796612,0.67796612 0 1 1 -1.355932,0 0.67796612,0.67796612 0 1 1 1.355932,0 z" />
  <path
     sodipodi:type="arc"
     style="fill:#d40000"
     id="path2986"
     sodipodi:cx="47.18644"
     sodipodi:cy="45.288136"
     sodipodi:rx="0.81355929"
     sodipodi:ry="0.54237288"
     d="m 47.999999,45.288136 a 0.81355929,0.54237288 0 1 1 -1.627119,0 0.81355929,0.54237288 0 1 1 1.627119,0 z" />
  <path
     sodipodi:type="arc"
     style="fill:#d40000"
     id="path2988"
     sodipodi:cx="36.474575"
     sodipodi:cy="42.305084"
     sodipodi:rx="0.67796612"
     sodipodi:ry="1.0847458"
     d="m 37.152541,42.305084 a 0.67796612,1.0847458 0 1 1 -1.355932,0 0.67796612,1.0847458 0 1 1 1.355932,0 z" />
  <path
     sodipodi:type="arc"
     style="fill:#d40000"
     id="path2990"
     sodipodi:cx="36.610168"
     sodipodi:cy="35.254238"
     sodipodi:rx="1.3559322"
     sodipodi:ry="1.3559322"
     d="m 37.966101,35.254238 a 1.3559322,1.3559322 0 1 1 -2.711865,0 1.3559322,1.3559322 0 1 1 2.711865,0 z" />
  <path
     sodipodi:type="arc"
     style="fill:#d40000"
     id="path2992"
     sodipodi:cx="45.830509"
     sodipodi:cy="31.186441"
     sodipodi:rx="0.54237288"
     sodipodi:ry="0.54237288"
     d="m 46.372882,31.186441 a 0.54237288,0.54237288 0 1 1 -1.084746,0 0.54237288,0.54237288 0 1 1 1.084746,0 z" />
  <path
     sodipodi:type="arc"
     style="fill:#d40000"
     id="path2994"
     sodipodi:cx="46.779659"
     sodipodi:cy="34.711864"
     sodipodi:rx="0.94915253"
     sodipodi:ry="0.81355929"
     d="m 47.728812,34.711864 a 0.94915253,0.81355929 0 1 1 -1.898305,0 0.94915253,0.81355929 0 1 1 1.898305,0 z" />
  <path
     sodipodi:type="arc"
     style="fill:#d40000"
     id="path2996"
     sodipodi:cx="50.576271"
     sodipodi:cy="18.847458"
     sodipodi:rx="1.2203389"
     sodipodi:ry="0.94915253"
     d="m 51.79661,18.847458 a 1.2203389,0.94915253 0 1 1 -2.440678,0 1.2203389,0.94915253 0 1 1 2.440678,0 z" />
  <path
     sodipodi:type="arc"
     style="fill:#d40000"
     id="path2998"
     sodipodi:cx="50.983051"
     sodipodi:cy="11.254237"
     sodipodi:rx="1.0847458"
     sodipodi:ry="0.94915253"
     d="m 52.067797,11.254237 a 1.0847458,0.94915253 0 1 1 -2.169491,0 1.0847458,0.94915253 0 1 1 2.169491,0 z" />
  <path
     sodipodi:type="arc"
     style="fill:#d40000"
     id="path3000"
     sodipodi:cx="16.542374"
     sodipodi:cy="22.372881"
     sodipodi:rx="1.3559322"
     sodipodi:ry="1.4915254"
     d="m 17.898306,22.372881 a 1.3559322,1.4915254 0 1 1 -2.711865,0 1.3559322,1.4915254 0 1 1 2.711865,0 z" />
  <path
     sodipodi:type="arc"
     style="fill:#d40000"
     id="path3002"
     sodipodi:cx="17.355932"
     sodipodi:cy="48.135593"
     sodipodi:rx="0.54237288"
     sodipodi:ry="0.94915253"
     d="m 17.898305,48.135593 a 0.54237288,0.94915253 0 1 1 -1.084746,0 0.54237288,0.94915253 0 1 1 1.084746,0 z" />
  <path
     sodipodi:type="arc"
     style="fill:#d40000"
     id="path3004"
     sodipodi:cx="15.18644"
     sodipodi:cy="42.033897"
     sodipodi:rx="0.54237288"
     sodipodi:ry="0.54237288"
     d="m 15.728813,42.033897 a 0.54237288,0.54237288 0 1 1 -1.084745,0 0.54237288,0.54237288 0 1 1 1.084745,0 z" />
  <path
     sodipodi:type="arc"
     style="fill:#d40000"
     id="path3006"
     sodipodi:cx="48.542374"
     sodipodi:cy="44.474575"
     sodipodi:rx="1.0847458"
     sodipodi:ry="1.0847458"
     d="m 49.627119,44.474575 a 1.0847458,1.0847458 0 1 1 -2.169491,0 1.0847458,1.0847458 0 1 1 2.169491,0 z" />
  <path
     style="fill:none;stroke:#000000;stroke-width:0.19175777;stroke-opacity:1"
     d="M 6.3257529,58.189975 C 6.1178536,54.14885 5.5381696,2.4661853 5.6989395,2.3054154 5.7833203,2.2210345 23.891591,4.7163082 24.002943,4.8276606 c 0.07536,0.07536 0.41377,18.7130424 0.341778,18.8231654 -0.0091,0.01384 -1.714836,-0.916623 -3.79062,-2.067728 L 16.779948,19.49018 14.54599,19.370459 12.312033,19.250738 12.415887,18.6577 c 0.05712,-0.326171 0.160276,-1.120541 0.229236,-1.765266 0.120145,-1.123275 0.106214,-1.177038 -0.333601,-1.287424 -0.407542,-0.102287 -0.450607,-0.203012 -0.384258,-0.898744 0.121362,-1.272603 -0.833558,-1.991868 -1.567607,-1.180753 -0.7539098,0.833061 -0.114457,2.538826 0.838378,2.236408 0.342874,-0.108824 0.39737,-0.06964 0.309361,0.222414 -0.332606,1.103756 -1.121007,4.501791 -1.058901,4.563897 0.04034,0.04034 1.302887,0.13575 2.80567,0.212033 2.063075,0.104724 2.66403,0.190818 2.453477,0.351488 -0.479757,0.366095 -0.686222,1.191347 -0.460238,1.839604 0.536988,1.540405 2.656965,1.163688 2.656965,-0.47214 l 0,-0.667026 3.055756,2.509958 c 1.680666,1.380475 3.104136,2.63603 3.163266,2.790121 0.05913,0.154091 -0.107546,0.562117 -0.370391,0.906725 -0.450777,0.590999 -0.580692,0.63919 -2.289153,0.849147 -2.698466,0.331623 -2.710557,0.329473 -3.916956,-0.696383 -0.594388,-0.505435 -1.780251,-1.494923 -2.635251,-2.19886 l -1.554545,-1.279887 -0.422241,0.449455 -0.42224,0.449456 2.45618,2.088445 c 1.350899,1.148644 2.814779,2.368138 3.253067,2.709986 l 0.796887,0.621539 2.04248,-0.177353 c 1.832714,-0.159136 2.089651,-0.228249 2.501778,-0.672943 0.252615,-0.272574 0.535908,-0.495591 0.629542,-0.495591 0.17521,0 0.423343,7.08546 0.423343,12.088625 l 0,2.822151 -1.390244,0.207534 c -0.764634,0.114145 -3.057915,0.447675 -5.096179,0.741178 l -3.705935,0.533643 0.112474,0.562369 c 0.06186,0.309306 0.133148,0.576829 0.158417,0.594499 0.02527,0.01766 2.224061,-0.185303 4.886207,-0.45105 2.662146,-0.265748 4.888057,-0.435386 4.946468,-0.376975 0.05841,0.05841 0.15918,2.791688 0.223931,6.073947 l 0.117728,5.967745 -0.995009,0 c -0.547255,0 -4.562478,0.431455 -8.922718,0.958789 -4.36024,0.527334 -8.0596914,0.958789 -8.2210024,0.958789 -0.2392615,0 -0.3137384,-0.39742 -0.4042757,-2.157275 z M 20.198715,50.388452 c 0.322541,-0.602672 0.229151,-1.134232 -0.255006,-1.451465 -0.955417,-0.626012 -1.98604,0.42693 -1.357227,1.38662 0.36603,0.558634 1.327274,0.597295 1.612233,0.06484 z m -6.318268,-0.75446 c 0.586727,-0.314665 0.668161,-0.449048 0.668161,-1.102607 0,-0.656812 -0.07887,-0.784949 -0.671152,-1.090465 -0.945192,-0.487552 -2.515433,-0.358984 -3.174199,0.259895 -1.4655608,1.376823 1.19551,2.995964 3.17719,1.933177 z m 3.821058,-0.682947 c 0.360295,-0.43413 0.179285,-1.722295 -0.253553,-1.804416 -0.63027,-0.119574 -0.926788,0.902127 -0.495625,1.707761 0.236304,0.441539 0.441029,0.46795 0.749178,0.09665 z m -2.852654,-4.334679 c 0.414603,-0.221888 0.493082,-0.944924 0.1408,-1.297206 -0.5283,-0.528301 -2.070984,-0.133523 -2.070984,0.529972 0,0.807304 1.064605,1.230477 1.930184,0.767234 z m -2.893322,-2.09824 c 0.681793,-0.681793 0.04852,-1.346653 -1.282682,-1.346653 -0.7933644,0 -1.5893358,0.432162 -1.5893358,0.86291 0,0.822527 2.1680608,1.187701 2.8720178,0.483743 z m 3.726675,-0.251862 c 0.151094,-0.239533 0.126808,-0.395963 -0.09607,-0.618845 -0.395369,-0.395368 -0.941644,-0.168248 -0.941644,0.391501 0,0.690099 0.655265,0.833657 1.037717,0.227344 l 0,0 z m 4.991779,0.0131 c 0.16418,-0.234409 0.29851,-0.646665 0.29851,-0.916131 0,-0.58046 -0.488155,-1.342304 -0.860086,-1.342304 -0.48457,0 -0.865734,0.590988 -0.865734,1.342304 0,1.208295 0.843466,1.749675 1.42731,0.916121 l 0,1e-5 z m -6.800877,-1.678813 c 0.648365,-0.648365 0.05402,-1.346653 -1.146197,-1.346653 -0.330268,0 -0.767395,0.08933 -0.971395,0.198504 -0.464212,0.248439 -0.485872,1.057783 -0.03533,1.320198 0.576563,0.335818 1.737863,0.243013 2.152925,-0.172049 l 0,0 z m 1.697387,-0.915198 c 0.72769,-0.621015 0.558898,-2.06605 -0.265501,-2.272961 -1.07169,-0.268976 -1.701639,1.375646 -0.852263,2.225021 0.469583,0.469583 0.616318,0.475876 1.117764,0.04794 l 0,0 z m 3.646452,-1.187742 c 0.08538,-0.604886 -0.45108,-1.033582 -0.95555,-0.763599 -0.35101,0.187856 -0.488316,0.941161 -0.220384,1.209093 0.07515,0.07515 0.355599,0.111108 0.623212,0.0799 0.349751,-0.04079 0.505172,-0.188524 0.552722,-0.525393 l 0,0 z m -7.01737,-11.472733 c 0.778909,-0.683973 0.08484,-1.846001 -1.102607,-1.846001 -1.1884023,0 -1.8799485,1.159606 -1.1026074,1.848885 0.6433784,0.570495 1.5536084,0.569304 2.2052144,-0.0029 l 0,-7e-6 z"
     id="path3887" />
  <path
     style="fill:url(#linearGradient5361);fill-opacity:1;fill-rule:nonzero;stroke:#000000;stroke-width:0.19175777;stroke-opacity:1"
     d="M 6.6976622,59.981733 C 6.511718,59.680868 6.2454598,45.833576 6.0188801,24.680304 5.9109948,14.608227 5.8229284,5.4999848 5.823177,4.4397653 l 4.521e-4,-1.927672 4.0748527,0.5298951 c 2.2411692,0.2914423 6.2873802,0.8502232 8.9915812,1.2417353 l 4.916728,0.7118402 0.115117,5.3840021 c 0.06332,2.961201 0.143263,7.085567 0.177662,9.165257 l 0.06255,3.781255 -1.450993,-0.794533 c -0.798046,-0.436993 -2.425789,-1.337088 -3.617208,-2.000211 l -2.166216,-1.205678 -2.209795,-0.132113 c -2.116571,-0.126541 -2.205794,-0.149095 -2.114932,-0.534619 0.05218,-0.221378 0.153751,-0.977009 0.225725,-1.679182 0.120176,-1.172434 0.09788,-1.294328 -0.2731,-1.492869 -0.269079,-0.144007 -0.40396,-0.40301 -0.40396,-0.775697 0,-1.430146 -0.974823,-2.14018 -1.832316,-1.334607 -0.6202596,0.582704 -0.6322502,1.569807 -0.02643,2.175629 0.243292,0.243293 0.55706,0.480587 0.697261,0.527321 0.202416,0.06747 0.14776,0.533096 -0.265402,2.261012 -0.392742,1.642517 -0.463735,2.211009 -0.289551,2.318661 0.126919,0.07844 1.296946,0.204114 2.60006,0.279275 2.218068,0.127933 2.35728,0.159111 2.181019,0.488458 -0.103553,0.193489 -0.188278,0.663414 -0.188278,1.044274 0,1.866938 2.558516,2.242868 3.024544,0.444405 l 0.15469,-0.596969 2.820812,2.354076 c 1.551446,1.29474 2.820812,2.477221 2.820812,2.627733 0,0.150513 -0.200196,0.473855 -0.444878,0.718538 -0.362462,0.36246 -0.802341,0.488665 -2.374431,0.681246 -1.440437,0.176452 -2.031975,0.181554 -2.333608,0.02013 -0.22223,-0.118934 -1.493649,-1.119747 -2.825376,-2.224026 -1.331726,-1.104279 -2.491292,-2.007781 -2.576814,-2.007781 -0.08552,0 -0.336813,0.230511 -0.558426,0.512247 -0.307911,0.391445 -0.455902,0.459277 -0.627543,0.287637 -0.123535,-0.123537 -0.580619,-0.22461 -1.015742,-0.22461 -0.878165,0 -1.6250152,0.585202 -1.6250152,1.273298 0,1.116241 2.0082532,1.664224 2.8429402,0.775739 0.229318,-0.244098 0.416942,-0.546116 0.416942,-0.671152 0,-0.125036 0.03957,-0.227339 0.08793,-0.227339 0.04836,0 1.429328,1.121783 3.068813,2.492851 1.639484,1.371069 3.13158,2.492608 3.315769,2.492311 1.323028,-0.0021 3.853554,-0.455028 4.291979,-0.768145 l 0.505452,-0.360986 0.107921,0.539606 c 0.05936,0.296783 0.168745,3.515909 0.243086,7.153614 l 0.135164,6.614007 -0.652658,0.113513 c -0.358962,0.06243 -2.594206,0.388505 -4.967208,0.724605 -2.373003,0.336101 -4.392816,0.681708 -4.488473,0.768016 -0.103995,0.09383 -0.102372,0.406408 0.004,0.777429 0.1757,0.612627 0.191507,0.619878 1.245147,0.571072 l 1.067187,-0.04944 -0.08631,0.588083 c -0.09728,0.66284 0.37655,1.546151 0.8294,1.546151 0.397817,0 0.711538,-0.922163 0.570139,-1.675885 -0.06451,-0.343865 -0.09181,-0.627095 -0.06066,-0.6294 0.03115,-0.0023 1.479685,-0.125297 3.218976,-0.273313 1.739291,-0.148016 3.179464,-0.252004 3.200383,-0.231085 0.02092,0.02092 0.09907,2.624776 0.173667,5.786348 l 0.135632,5.748313 -8.417595,0.927212 c -4.629678,0.509967 -8.6447817,0.971121 -8.9224529,1.024787 -0.2776711,0.05367 -0.5632262,0.0031 -0.6345669,-0.112301 l 0,0 z M 20.290467,50.524935 c 0.623503,-0.890174 0.130175,-1.874909 -0.939284,-1.874909 -0.76824,0 -1.063299,0.300288 -1.063299,1.082146 0,1.098233 1.40034,1.652586 2.002583,0.792763 z m -6.413011,-0.686374 c 0.607823,-0.29624 0.676624,-0.411943 0.729148,-1.226204 0.05043,-0.781808 -0.0049,-0.940313 -0.424149,-1.215014 -1.813897,-1.188511 -4.8762309,0.196606 -3.86084,1.746288 0.646469,0.986638 2.295912,1.308994 3.555841,0.69493 l 0,0 z m 1.107879,-5.130442 c 0.497056,-0.348154 0.557339,-1.077002 0.124849,-1.509493 -0.641524,-0.641523 -2.383275,-0.158554 -2.383275,0.660859 0,0.509786 0.742171,1.147143 1.335795,1.147143 0.273046,0 0.68823,-0.13433 0.922631,-0.298509 l 0,0 z M 11.76812,42.840864 c 0.347704,-0.175909 0.479394,-0.397453 0.479394,-0.806481 0,-0.735426 -0.662279,-1.099858 -1.795238,-0.987864 -0.9977522,0.09863 -1.6612565,0.656027 -1.4759397,1.23991 0.2232294,0.703333 1.8563817,1.027668 2.7917837,0.554435 z m 3.861851,-0.315073 c 0.368752,-0.302613 0.413265,-0.435958 0.240042,-0.719092 -0.12629,-0.206422 -0.437807,-0.34759 -0.767031,-0.34759 -0.432868,0 -0.568108,0.09688 -0.617034,0.44201 -0.06098,0.430187 0.248261,0.996174 0.54429,0.996174 0.08087,0 0.350749,-0.167177 0.599733,-0.371502 z m 5.136846,-0.133753 c 0.525171,-0.667647 0.502892,-1.460092 -0.05943,-2.113829 -0.407367,-0.473592 -0.51012,-0.506867 -0.948445,-0.307153 -1.039002,0.473402 -0.817442,2.926237 0.264322,2.926237 0.190365,0 0.524963,-0.227366 0.743551,-0.505255 l 0,0 z m -7.089403,-1.464623 c 0.259111,-0.131122 0.52167,-0.452572 0.583463,-0.714332 0.07587,-0.321411 0.160059,-0.398734 0.259297,-0.238164 0.432488,0.699782 1.658375,-0.322887 1.658375,-1.383461 0,-0.720917 -0.533553,-1.446899 -1.063384,-1.446899 -0.510456,0 -1.237709,0.894107 -1.237709,1.521679 0,0.576963 -0.005,0.579639 -0.857849,0.462738 -1.050306,-0.14396 -1.82676,0.273169 -1.82676,0.981376 0,0.900253 1.406292,1.362719 2.484567,0.817063 l 0,0 z m 5.459683,-1.974854 c 0.579188,-0.579187 0.245946,-1.424486 -0.561576,-1.424486 -0.513999,0 -0.86291,0.348911 -0.86291,0.86291 0,0.807521 0.845298,1.140765 1.424486,0.561576 z"
     id="path5353" />
  <path
     style="opacity:0.67960008;fill:#f6d7d7;fill-opacity:0.62331836;fill-rule:nonzero;stroke:#000000;stroke-width:0.03681749;stroke-miterlimit:4;stroke-opacity:0.80097088;stroke-dasharray:none"
     d="M 6.9024749,59.811097 C 6.7101222,59.499864 6.0153869,16.861749 6.0153869,5.3676813 l 0,-2.5973002 1.1984861,0.1309059 c 1.5393353,0.1681355 16.318213,2.2225471 16.371462,2.2757967 0.05009,0.05009 0.406625,17.6629133 0.358928,17.7310543 -0.01907,0.02724 -1.580001,-0.80726 -3.468737,-1.854451 l -3.434067,-1.903984 -2.013457,-0.135045 c -1.107401,-0.07428 -2.061972,-0.162479 -2.121268,-0.196008 -0.0593,-0.03353 -0.02704,-0.71771 0.07167,-1.520401 0.16692,-1.357271 0.150976,-1.489783 -0.227764,-1.892933 -0.223988,-0.238424 -0.40725,-0.566068 -0.40725,-0.7281 0,-0.591896 -0.43359,-1.515684 -0.804598,-1.714241 -0.517714,-0.277072 -1.380778,0.093 -1.6633779,0.713241 -0.3683358,0.808409 -0.2544702,1.407863 0.3897999,2.052134 l 0.606433,0.606432 -0.243224,1.344334 c -0.133774,0.739384 -0.28711,1.74276 -0.340747,2.229725 -0.09688,0.879562 -0.09328,0.886153 0.547641,1.001247 0.35484,0.06372 1.429598,0.172812 2.388352,0.242423 l 1.743189,0.126564 -0.08417,0.885643 c -0.104289,1.09735 0.413489,1.865324 1.379852,2.046614 0.780515,0.146426 1.35536,-0.133059 1.80944,-0.879733 l 0.338851,-0.557196 1.520526,1.256843 c 2.21874,1.833976 3.533982,3.109989 3.533982,3.428574 0,0.153872 -0.194155,0.404283 -0.431455,0.556467 -0.539673,0.346104 -3.51805,0.712938 -4.057588,0.499758 -0.220429,-0.08709 -1.564867,-1.072057 -2.98764,-2.188806 -1.422772,-1.116748 -2.639045,-2.03045 -2.702828,-2.03045 -0.06378,0 -0.269348,0.169483 -0.456812,0.376627 -0.277133,0.306228 -0.4968,0.355253 -1.175187,0.262269 -1.002782,-0.137446 -1.8510601,0.171938 -2.185668,0.797158 -0.9045582,1.690182 2.081146,2.825028 3.218129,1.223189 0.227241,-0.320149 0.477039,-0.164381 3.119415,1.945196 1.579815,1.26127 3.092637,2.348494 3.361826,2.416056 0.576035,0.144576 3.172703,-0.239814 4.036604,-0.597546 l 0.601706,-0.249158 0.107213,0.70032 c 0.05897,0.385176 0.167538,3.471238 0.241269,6.857914 l 0.134058,6.157593 -0.651218,0.118305 c -0.35817,0.06507 -2.45202,0.385094 -4.653,0.711166 -4.890835,0.724571 -5.00085,0.75976 -4.842982,1.5491 0.0927,0.463513 0.05918,0.568761 -0.154982,0.48658 -1.812091,-0.695366 -3.9918434,0.139914 -3.9918434,1.529669 0,0.676097 0.9402114,1.53703 1.8688144,1.711237 0.933554,0.175136 2.353121,-0.245445 2.720401,-0.805985 0.182804,-0.278992 0.265767,-0.737993 0.220046,-1.21742 l -0.07339,-0.76958 0.795529,0 c 0.773999,0 0.79871,0.01988 0.91301,0.73468 0.154569,0.96662 0.764032,1.54578 1.284568,1.220701 0.332674,-0.207758 0.372788,-0.180112 0.372788,0.256925 0,0.623834 0.798491,1.431092 1.41555,1.431092 0.532991,0 1.269059,-0.798606 1.269059,-1.376881 0,-0.958029 -1.688209,-1.701461 -2.353339,-1.036331 -0.234025,0.234025 -0.268918,0.154815 -0.253394,-0.575226 0.0099,-0.465641 0.06115,-0.851301 0.113882,-0.857021 0.608873,-0.06604 5.856832,-0.501036 5.880497,-0.487427 0.01754,0.01009 0.09439,2.523795 0.170788,5.586025 l 0.138903,5.567688 -8.320493,0.922578 c -4.576271,0.507418 -8.5052341,0.964417 -8.7310286,1.015553 -0.2257944,0.05114 -0.4616283,0.0103 -0.5240755,-0.09074 l 0,0 z m 8.2301221,-15.08339 c 0.487563,-0.487562 0.587024,-0.966268 0.296184,-1.425531 -0.117168,-0.18502 -0.01387,-0.400903 0.338512,-0.707473 0.663981,-0.577657 0.393243,-1.109283 -0.608431,-1.194724 -0.602264,-0.05137 -0.709004,0.0038 -0.813603,0.420557 -0.06622,0.263826 -0.06403,0.570882 0.0049,0.682341 0.07483,0.121084 -0.06186,0.202658 -0.339602,0.202658 -0.606415,0 -1.475361,0.691229 -1.475361,1.173621 0,0.550866 0.914874,1.31923 1.570779,1.31923 0.334632,0 0.743381,-0.187392 1.026667,-0.470679 z M 12.08435,42.873563 c 0.142474,-0.118244 0.259043,-0.498856 0.259043,-0.845806 0,-0.587526 0.05315,-0.639796 0.774479,-0.761663 0.499611,-0.08441 0.877038,-0.287372 1.063454,-0.57188 0.190901,-0.291353 0.414103,-0.408309 0.657668,-0.344615 0.599099,0.156668 1.531313,-0.915264 1.531313,-1.760822 0,-0.726825 -0.673454,-1.635975 -1.21185,-1.635975 -0.46846,0 -1.246616,0.749216 -1.372248,1.321213 -0.109262,0.497467 -0.210725,0.55816 -1.071333,0.640854 -1.177371,0.113129 -1.776031,0.595024 -1.666481,1.341438 0.0614,0.418346 0.0021,0.53165 -0.278434,0.53165 -1.0822452,0 -2.2089793,0.948674 -1.9447001,1.637374 0.2931458,0.763926 2.5111421,1.068973 3.2590891,0.448232 z m 8.706541,-0.274717 c 0.658123,-0.700541 0.634062,-1.829108 -0.05366,-2.516828 -0.454215,-0.454215 -0.571565,-0.488035 -1.00622,-0.289993 -0.908101,0.413757 -1.11947,2.105753 -0.366936,2.937293 0.444581,0.491257 0.880148,0.451427 1.426815,-0.130472 z m -1.544218,-3.536709 c 0.466613,-0.466614 0.487903,-0.909123 0.06616,-1.375145 -0.616182,-0.680872 -1.791979,-0.251327 -1.791979,0.654652 0,0.512829 0.529331,1.104009 0.988509,1.104009 0.194588,0 0.526378,-0.172582 0.737311,-0.383516 z"
     id="path5459" />
  <path
     style="opacity:0.67960008;fill:#f6d7d7;fill-opacity:0.62331836;fill-rule:nonzero;stroke:#000000;stroke-width:0.03681749;stroke-miterlimit:4;stroke-opacity:0.80097088;stroke-dasharray:none"
     d="m 54.768878,60.016671 c 0.03474,-0.260609 -1.433253,-1.77073 -5.080659,-5.226445 -2.821236,-2.672965 -5.127156,-4.910696 -5.124267,-4.972735 0.0029,-0.06204 1.922864,-1.255636 4.26661,-2.652438 2.343747,-1.396803 4.544606,-2.713176 4.890799,-2.925276 0.556542,-0.340972 0.603987,-0.433194 0.409659,-0.796299 -0.178452,-0.33344 -0.161593,-0.443231 0.08965,-0.583833 0.447902,-0.250658 0.381532,-1.040651 -0.116751,-1.389663 -0.907332,-0.63552 -2.641941,-0.177269 -2.641941,0.697952 0,0.453898 0.502963,0.905962 1.018045,0.915018 0.573801,0.01009 0.197109,0.33265 -1.311858,1.123352 -1.423227,0.745773 -1.432007,0.747587 -1.432007,0.295953 0,-0.581935 -0.637031,-1.221449 -1.216706,-1.221449 -0.490321,0 -1.084388,0.536763 -1.084388,0.979786 0,0.15314 -0.258873,0.376151 -0.575273,0.495579 -1.05291,0.39743 -0.42694,1.357893 0.715157,1.097311 0.502592,-0.114673 0.510567,-0.106393 0.147753,0.15337 -0.599194,0.429006 -3.713253,2.067898 -3.929212,2.067898 -0.106469,0 -0.19358,-0.290229 -0.19358,-0.644954 0,-0.595247 0.265758,-0.87975 3.448137,-3.691337 1.896475,-1.67551 3.449713,-3.140873 3.45164,-3.25636 0.0019,-0.115488 -0.154858,-0.353292 -0.348409,-0.528453 -0.333239,-0.301578 -0.512769,-0.196096 -3.383507,1.987951 -1.667377,1.268533 -3.046296,2.282956 -3.064265,2.254271 -0.01797,-0.02868 0.03,-2.986046 0.106597,-6.571916 0.0766,-3.585871 0.146929,-7.774506 0.156295,-9.308078 l 0.01703,-2.788313 3.378053,-2.452691 3.378054,-2.45269 2.097442,-0.392138 c 2.066797,-0.38641 2.096589,-0.39949 2.039103,-0.895245 -0.0507,-0.437251 -0.146191,-0.502413 -0.729491,-0.49781 -0.369133,0.0029 -1.037888,0.06865 -1.486122,0.146085 -0.728902,0.125919 -0.814971,0.101193 -0.814971,-0.234121 0,-0.43951 -0.682787,-0.971929 -1.246425,-0.971929 -0.216733,0 -0.595268,0.140932 -0.841188,0.313181 -0.353083,0.247309 -0.427149,0.438888 -0.35214,0.910849 0.09019,0.567491 -0.0061,0.674465 -1.906153,2.118575 -1.100628,0.836499 -2.322396,1.757159 -2.71504,2.045912 l -0.713897,0.525006 0.07098,-3.292337 c 0.07014,-3.253415 0.07699,-3.298779 0.5796,-3.837194 0.279743,-0.29967 0.73512,-0.707735 1.011948,-0.90681 l 0.503323,-0.361954 -0.09772,0.866937 c -0.08138,0.721981 -0.02368,0.945747 0.345073,1.338266 1.046245,1.113676 2.652089,0.08812 2.348526,-1.499871 -0.154413,-0.807757 -0.695253,-1.164429 -1.58477,-1.04512 -0.424234,0.0569 -0.771334,0.07786 -0.771334,0.04658 0,-0.03129 0.780759,-0.769665 1.735021,-1.640845 1.309312,-1.195317 1.789224,-1.529759 1.955929,-1.363054 0.413517,0.413517 1.449381,0.26408 1.79178,-0.258486 0.291697,-0.445187 0.290939,-0.514759 -0.01063,-0.975005 -0.306184,-0.467296 -0.305396,-0.516979 0.01379,-0.869677 0.324718,-0.358809 0.32156,-0.391035 -0.07739,-0.789988 l -0.41592,-0.41592 -0.530774,0.482867 c -4.396219,3.999419 -6.555967,5.923484 -6.649062,5.923484 -0.149645,0 -0.142063,-1.888525 0.0099,-2.455757 0.08664,-0.323497 0.201829,-0.403548 0.428836,-0.298027 0.636246,0.295751 1.605707,0.146503 1.969907,-0.303265 0.453525,-0.560079 0.446591,-0.877198 -0.02959,-1.35338 -0.434105,-0.434106 -1.696754,-0.527635 -2.070984,-0.153406 -0.178973,0.178974 -0.229456,-0.66263 -0.227173,-3.787216 0.0016,-2.2095292 0.07918,-4.1377391 0.172372,-4.2849112 0.144143,-0.2276422 1.319464,-0.1944714 7.87361,0.2222151 4.237296,0.2693904 7.731877,0.5192404 7.765735,0.5552223 0.03386,0.035982 -0.09879,11.7147058 -0.294775,25.9527208 C 59.690875,43.42463 59.527221,56.16727 59.523185,57.50359 l -0.0073,2.429676 -0.527334,0.09995 c -0.290033,0.05497 -1.369086,0.156202 -2.397894,0.224959 -1.767966,0.118155 -1.867881,0.10491 -1.821699,-0.241496 l 0,0 z M 49.688219,38.919113 c 0.61317,-0.802712 -0.0191,-2.158069 -1.006728,-2.158069 -1.326267,0 -1.719309,2.095197 -0.479394,2.555519 0.437795,0.162534 1.217691,-0.04604 1.486122,-0.39745 z m -2.170972,-3.60995 c 0.654565,-0.654565 0.230313,-1.424486 -0.784938,-1.424486 -0.592941,0 -1.023063,0.392041 -1.023063,0.932486 0,0.345925 0.59479,0.793334 1.054667,0.793334 0.248601,0 0.587601,-0.135599 0.753334,-0.301334 l 0,0 z m -1.163384,-3.821458 c 0.177827,-0.463409 -0.07622,-0.86291 -0.548739,-0.86291 -0.511668,0 -0.774353,0.507506 -0.459223,0.887215 0.290118,0.349571 0.869858,0.33559 1.007962,-0.02431 z m 9.566484,-15.669737 c 0.424124,-0.485988 0.422693,-0.767237 -0.0066,-1.29739 -0.705372,-0.871098 -2.534192,-0.389235 -2.534192,0.667717 0,1.113703 1.741686,1.545337 2.540791,0.629673 z"
     id="path5461" />
  <path
     style="opacity:0.67960008;fill:#f6d7d7;fill-opacity:0.62331836;fill-rule:nonzero;stroke:#000000;stroke-width:0.03681749;stroke-miterlimit:4;stroke-opacity:0.80097088;stroke-dasharray:none"
     d="m 29.203098,33.059781 -2.795467,-2.722622 0.340962,-1.917578 0.340963,-1.917578 2.802938,-2.719672 2.802938,-2.719672 -0.321065,-0.490008 c -0.320802,-0.489605 -0.32145,-0.489704 -0.790561,-0.120701 -0.258222,0.203117 -1.672766,1.528434 -3.143432,2.94515 -2.34319,2.25723 -2.673088,2.513687 -2.667075,2.073342 0.0038,-0.276375 0.504279,-2.493869 1.112233,-4.927762 0.811327,-3.248081 1.217583,-4.545707 1.5272,-4.878042 0.561075,-0.602243 0.541068,-1.429205 -0.04885,-2.019122 -0.538577,-0.538576 -0.995207,-0.592973 -1.57408,-0.187515 -0.572318,0.400867 -0.713928,1.158715 -0.352059,1.884099 0.281067,0.563411 0.272269,0.729039 -0.126609,2.383604 -0.235765,0.977967 -0.494857,1.711927 -0.575761,1.631024 C 25.605379,19.226731 25.401558,4.7371538 25.529729,4.7373986 25.710549,4.7377444 42.073115,2.4081659 42.497303,2.3216839 l 0.527334,-0.1075112 -4.71e-4,3.0354211 c -2.49e-4,1.6694812 -0.05651,4.8910862 -0.125001,7.1591202 l -0.124532,4.123699 -0.908455,0.810856 c -0.884287,0.789284 -0.958757,0.816139 -2.799304,1.009478 -1.039967,0.109243 -2.219649,0.248588 -2.621516,0.309656 l -0.730666,0.111032 0.133462,2.918044 0.133461,2.918044 -1.320373,0.930192 c -0.726205,0.511606 -1.35519,0.957849 -1.397745,0.991652 -0.04255,0.0338 0.281037,1.309546 0.719092,2.834985 0.438055,1.525439 0.796464,2.853471 0.796464,2.951185 0,0.151536 -2.648324,3.50282 -2.745926,3.474793 -0.01901,-0.0055 -1.292522,-1.235106 -2.830029,-2.732549 z m 3.999225,-0.432402 c 0.316099,-0.221405 0.426183,-0.491019 0.426183,-1.043795 0,-0.552776 -0.110084,-0.82239 -0.426183,-1.043795 -0.584695,-0.409535 -0.855763,-0.376302 -1.404232,0.17217 -0.575011,0.57501 -0.595165,1.045162 -0.07325,1.708675 0.453845,0.57697 0.866471,0.63471 1.477477,0.206745 z m -0.137336,-7.30213 c 0.206686,-0.558725 -0.194299,-1.25094 -0.850837,-1.46879 -0.830734,-0.27565 -1.846512,0.256091 -1.84259,0.964561 0.004,0.715488 0.212238,0.996615 0.876318,1.182825 0.706284,0.198044 1.618893,-0.142767 1.817109,-0.678596 l 0,0 z m 4.468693,-8.904447 c 1.244325,-0.978786 0.03486,-2.665739 -1.676646,-2.338565 -0.582828,0.111415 -1.269739,0.88409 -1.269739,1.428271 0,1.131693 1.913397,1.722843 2.946385,0.910294 z"
     id="path5463" />
  <path
     style="opacity:0.67960008;fill:#f6d7d7;fill-opacity:0.62331836;fill-rule:nonzero;stroke:#000000;stroke-width:0.03681749;stroke-miterlimit:4;stroke-opacity:0.80097088;stroke-dasharray:none"
     d="m 35.737841,29.212781 c 0,-0.462627 -0.05127,-1.097498 -0.113937,-1.410825 -0.110624,-0.55312 -0.03814,-0.618968 2.492851,-2.26458 1.433734,-0.932193 2.606788,-1.791911 2.606788,-1.910485 0,-0.118575 -0.110423,-0.366603 -0.245384,-0.551174 -0.232539,-0.318016 -0.293145,-0.315111 -1.157693,0.05548 l -0.912308,0.391061 0.05508,-1.770008 0.05509,-1.770008 1.265587,-0.09588 c 1.254471,-0.09504 1.477214,-0.194803 2.547361,-1.140957 l 0.553066,-0.488984 -0.120739,2.205214 c -0.06641,1.212868 -0.121131,2.687587 -0.121611,3.277153 l -8.72e-4,1.071939 -2.341966,1.804428 c -1.288082,0.992435 -2.84132,2.172154 -3.45164,2.621598 l -1.109674,0.817169 0,-0.841139 z"
     id="path5465" />
  <path
     style="opacity:0.67960008;fill:#f6d7d7;fill-opacity:0.62331836;fill-rule:nonzero;stroke:#000000;stroke-width:0.03681749;stroke-miterlimit:4;stroke-opacity:0.80097088;stroke-dasharray:none"
     d="m 38.710087,46.529202 c -1.704802,-1.016311 -1.964147,-1.243998 -2.337264,-2.051957 -0.533706,-1.155701 -0.536381,-1.117031 0.07665,-1.108117 0.649175,0.0094 0.997416,-0.760069 0.711671,-1.57258 -0.369939,-1.051915 -1.413515,-0.688094 -1.43709,0.501012 -0.01246,0.628275 -0.116411,0.482141 -1.073882,-1.509603 -0.58305,-1.212868 -1.216463,-2.561462 -1.407585,-2.996875 l -0.347495,-0.791661 3.029542,-3.906404 c 2.779217,-3.583625 3.177133,-4.012808 4.815734,-5.194134 0.982405,-0.70825 1.815932,-1.257987 1.852282,-1.221637 0.03635,0.03635 -0.02376,4.232808 -0.133577,9.325463 -0.174606,8.097163 -0.238803,9.302617 -0.511459,9.603898 -0.179664,0.198527 -0.258778,0.482674 -0.186692,0.670527 0.08171,0.212934 -0.05568,0.514696 -0.396136,0.870051 -0.286678,0.299229 -0.569807,0.539804 -0.629175,0.534613 -0.05937,-0.0052 -0.970852,-0.523861 -2.02552,-1.152596 z M 37.703359,36.15635 c 0.787247,-0.930365 0.140624,-2.271673 -1.095138,-2.271673 -1.142052,0 -1.788435,1.110539 -1.24136,2.132759 0.432793,0.808681 1.705722,0.884362 2.336498,0.138914 l 0,0 z"
     id="path5467" />
  <path
     style="opacity:0.67960008;fill:#f6d7d7;fill-opacity:0.62331836;fill-rule:nonzero;stroke:#000000;stroke-width:0.03681749;stroke-miterlimit:4;stroke-opacity:0.80097088;stroke-dasharray:none"
     d="m 27.905363,46.407258 -1.940784,-2.071782 -0.0032,-4.908831 c -0.0018,-2.699857 -0.05684,-5.590605 -0.122405,-6.423885 l -0.119213,-1.515055 1.275642,1.246426 1.275642,1.246425 -0.605943,0.124669 c -0.89406,0.183947 -1.159006,0.683483 -0.63855,1.203938 0.411273,0.411274 1.346527,0.379293 1.786923,-0.0611 0.355411,-0.355411 0.382966,-0.341471 1.421396,0.719092 0.914823,0.934321 1.273332,1.551334 2.633951,4.533168 0.866246,1.898402 1.693914,3.730149 1.839261,4.070548 l 0.264269,0.618907 -2.309666,1.547378 c -1.270317,0.851058 -2.423715,1.591143 -2.563107,1.644633 -0.148707,0.05706 -1.055466,-0.758906 -2.194224,-1.974528 l 0,0 z m 4.428778,-3.658246 c 0.437613,-0.384275 0.424052,-0.722032 -0.04794,-1.194024 -0.807555,-0.807554 -2.487892,-0.195096 -2.234513,0.814447 0.215986,0.860558 1.492886,1.07291 2.282452,0.379577 z"
     id="path5469" />
  <path
     style="opacity:0.67960008;fill:#f6d7d7;fill-opacity:0.62331836;fill-rule:nonzero;stroke:#000000;stroke-width:0.03681749;stroke-miterlimit:4;stroke-opacity:0.80097088;stroke-dasharray:none"
     d="m 33.484688,59.90137 -7.334735,-1.164513 0,-5.650649 c 0,-3.107856 0.04484,-5.605812 0.09963,-5.551013 0.0548,0.0548 0.702085,0.866907 1.438412,1.804683 l 1.338777,1.705047 -0.500228,0.133781 c -1.161652,0.310674 -1.550163,1.24724 -0.86724,2.090614 0.728806,0.900038 2.517557,0.366572 2.517557,-0.75082 0,-0.265383 -0.131816,-0.62817 -0.292924,-0.806192 -0.269943,-0.298285 -0.02142,-0.485803 3.167917,-2.39031 3.371796,-2.01346 3.470644,-2.057761 3.841874,-1.721803 0.373696,0.33819 0.319157,0.390598 -2.832341,2.721669 -1.767355,1.307261 -3.285177,2.448059 -3.372936,2.535106 -0.185084,0.183584 0.254388,0.970911 0.541265,0.969694 0.106464,-4.52e-4 1.746809,-1.155082 3.64521,-2.565845 l 3.45164,-2.565025 1.01562,0.377736 c 0.55859,0.207754 1.140847,0.32968 1.293904,0.270947 0.153056,-0.05873 0.591583,0.07806 0.974502,0.303991 l 0.696218,0.410778 -0.11912,1.260907 c -0.06552,0.693499 -0.119734,3.180882 -0.120484,5.527517 l -0.0014,4.266611 -0.623213,-0.0242 c -0.342767,-0.01331 -3.923843,-0.54823 -7.957947,-1.188712 z"
     id="path5471" />
  <path
     style="opacity:0.67960008;fill:#f6d7d7;fill-opacity:0.62331836;fill-rule:nonzero;stroke:#000000;stroke-width:0.03681749;stroke-miterlimit:4;stroke-opacity:0.80097088;stroke-dasharray:none"
     d="m 43.439353,56.438762 c 0.0427,-2.691352 0.133134,-4.948866 0.200965,-5.016697 0.06783,-0.06783 2.39038,1.933823 5.161218,4.448121 2.770838,2.514298 4.912844,4.588973 4.760014,4.610388 -0.15283,0.02142 -2.21942,0.175474 -4.592422,0.342351 -2.373003,0.166877 -4.605444,0.349716 -4.96098,0.406308 l -0.646431,0.102895 0.07764,-4.893366 z"
     id="path5473" />
  <path
     style="opacity:0.67960008;fill:#f6d7d7;fill-opacity:0.62331836;fill-rule:nonzero;stroke:#000000;stroke-width:0.03681749;stroke-miterlimit:4;stroke-opacity:0.80097088;stroke-dasharray:none"
     d="m 54.913619,59.941816 c 0,-0.149233 -2.243319,-2.449174 -4.985152,-5.110977 -2.741833,-2.661805 -4.995666,-4.899492 -5.008517,-4.972638 -0.01285,-0.07315 1.734294,-1.196486 3.882544,-2.496308 5.88574,-3.561228 5.570879,-3.340144 5.448927,-3.826041 -0.05843,-0.232813 -0.01963,-0.476825 0.08622,-0.542245 0.354031,-0.218804 0.22326,-1.408643 -0.178447,-1.623631 -0.513477,-0.274804 -1.984946,-0.24902 -2.35087,0.04119 -0.646379,0.512643 -0.500282,1.3706 0.282715,1.66025 0.381916,0.14128 0.352104,0.190452 -0.405373,0.668627 -1.371964,0.866081 -1.741658,0.950357 -1.935254,0.44116 -0.243548,-0.640581 -0.716193,-0.960613 -1.390385,-0.941445 -0.582584,0.01657 -0.565404,-0.01082 0.773674,-1.232966 1.389759,-1.268405 1.653388,-1.820439 1.028961,-2.154621 -0.434017,-0.23228 -0.515338,-0.185086 -3.663106,2.125771 -1.413971,1.038031 -2.599881,1.858304 -2.635358,1.822827 -0.08663,-0.08663 0.246457,-18.161444 0.336309,-18.249557 0.03881,-0.03805 1.54003,-1.139288 3.336054,-2.447187 l 3.265499,-2.378 1.816082,-0.34973 c 2.333874,-0.449443 2.32697,-0.446258 2.25791,-1.041769 -0.05705,-0.491908 -0.08906,-0.502838 -1.473139,-0.502838 -1.26696,0 -1.430724,-0.04258 -1.566941,-0.407446 -0.223367,-0.598301 -1.119148,-0.855815 -1.873572,-0.538603 -0.488599,0.20544 -0.609757,0.368307 -0.609757,0.81967 0,0.309807 -0.151009,0.736596 -0.335576,0.948418 -0.367528,0.421803 -4.559379,3.684269 -4.733814,3.684269 -0.139835,0 -0.110552,-2.502031 0.05462,-4.666853 0.127274,-1.668118 0.141252,-1.705576 0.894152,-2.396292 l 0.764857,-0.701684 0.102279,0.888408 c 0.13393,1.163338 0.440896,1.507203 1.345466,1.507203 0.880629,0 1.524501,-0.681305 1.524501,-1.613134 0,-0.958609 -0.465508,-1.45499 -1.364495,-1.45499 -0.947508,0 -0.908476,-0.06894 0.924474,-1.632901 1.175047,-1.002605 1.50942,-1.197762 1.792561,-1.04623 0.540715,0.289382 0.882314,0.224875 1.465194,-0.276685 0.504259,-0.433909 0.523082,-0.502608 0.299913,-1.094603 -0.157421,-0.417586 -0.173667,-0.696084 -0.04794,-0.821812 0.3038,-0.3038 0.221364,-0.792836 -0.197554,-1.171952 -0.378367,-0.342417 -0.402675,-0.336992 -1.006728,0.224663 -0.34045,0.316553 -1.913365,1.732377 -3.495366,3.146274 L 44.46282,14.79813 44.40341,13.867028 c -0.08002,-1.254105 0.03367,-1.497055 0.630472,-1.347268 0.998593,0.250631 2.017667,-0.33051 2.017667,-1.150602 0,-0.694047 -0.632264,-1.122034 -1.628051,-1.102047 l -0.872697,0.01752 0.05189,-3.876175 0.05189,-3.8761753 2.843459,0.058042 c 3.148872,0.064276 12.337431,0.677096 12.493579,0.8332437 0.144805,0.1448058 -0.553875,56.2986346 -0.702329,56.4470896 -0.04493,0.04493 -1.047841,0.140376 -2.228683,0.212095 -1.7847,0.108395 -2.146985,0.08461 -2.146985,-0.140936 z M 49.553232,39.093545 c 0.886795,-0.718083 0.286604,-2.380441 -0.859452,-2.380441 -0.759286,0 -1.258715,0.557973 -1.258715,1.406268 0,0.402154 0.133866,0.857479 0.301334,1.024947 0.405379,0.405378 1.283826,0.380829 1.816833,-0.05077 z M 47.74073,35.113453 c 0.682083,-1.070453 -1.034627,-1.814189 -1.884883,-0.816594 -0.25638,0.300808 -0.286524,0.476917 -0.131283,0.766989 0.415815,0.776956 1.535156,0.804496 2.016166,0.0496 z m -1.293181,-3.80483 c 0.09665,-0.508916 -0.48978,-0.91946 -0.956551,-0.669651 -0.356247,0.190657 -0.479251,0.758467 -0.220384,1.017334 0.272798,0.272799 1.10583,0.02671 1.176935,-0.347683 l 0,0 z m 9.303119,-15.271336 c 1.11646,-0.878208 0.189061,-2.294625 -1.317367,-2.012018 -0.763496,0.143233 -1.101684,0.511592 -1.101684,1.199968 0,1.084326 1.452878,1.572042 2.419051,0.81205 z"
     id="path5475" />
  <path
     style="opacity:0.67960008;fill:#f6d7d7;fill-opacity:0.62331836;fill-rule:nonzero;stroke:#000000;stroke-width:0.03681749;stroke-miterlimit:4;stroke-opacity:0.80097088;stroke-dasharray:none"
     d="m 43.555024,56.751791 c 0.05384,-2.399369 0.151527,-4.510633 0.217083,-4.691698 0.0966,-0.266813 0.518631,0.01852 2.226652,1.505416 2.892463,2.518004 7.225971,6.616971 7.113985,6.728957 -0.08314,0.08314 -8.275631,0.805631 -9.248645,0.815632 -0.405814,0.0042 -0.406687,-0.0081 -0.309075,-4.358307 z"
     id="path5477" />
  <path
     style="opacity:0.67960008;fill:#f6d7d7;fill-opacity:0.62331836;fill-rule:nonzero;stroke:#000000;stroke-width:0.03681749;stroke-miterlimit:4;stroke-opacity:0.80097088;stroke-dasharray:none"
     d="m 50.150474,54.927609 -5.050781,-5.068119 1.503263,-0.955702 c 0.826794,-0.525635 2.869132,-1.800741 4.53853,-2.833568 1.669397,-1.032828 3.059441,-1.975103 3.088985,-2.093943 0.02954,-0.118842 0.15265,-0.525481 0.273567,-0.903643 0.336255,-1.051621 -0.01549,-1.892181 -0.807664,-1.930078 -2.135997,-0.102186 -3.07412,0.723254 -2.020004,1.77737 0.451005,0.451004 0.442583,0.46256 -0.82599,1.133303 l -0.707478,0.37407 -0.407861,-0.572788 c -0.224323,-0.315033 -0.618374,-0.625623 -0.875667,-0.6902 -0.455841,-0.114408 -0.440801,-0.146579 0.588005,-1.257812 1.129746,-1.22026 1.35787,-1.955616 0.674011,-2.172665 -0.458522,-0.145529 -0.293476,-0.237684 -3.261598,1.821154 -1.318335,0.914464 -2.518137,1.733329 -2.666227,1.819703 -0.230193,0.134261 -0.250285,-0.953031 -0.138497,-7.494912 0.07192,-4.208575 0.182295,-8.255993 0.245287,-8.99426 l 0.114529,-1.342305 3.204486,-2.339142 3.204486,-2.339143 1.996942,-0.441345 c 1.992909,-0.440454 1.996942,-0.442507 1.996942,-1.016618 0,-0.57422 -0.0023,-0.57538 -1.246426,-0.63349 -0.982408,-0.04589 -1.347971,-0.151631 -1.72582,-0.499224 -0.669387,-0.615787 -1.108939,-0.732459 -1.844677,-0.489644 -0.511434,0.168789 -0.659834,0.338964 -0.759671,0.87114 -0.09283,0.494817 -0.420379,0.918347 -1.300654,1.681772 -1.332687,1.155785 -3.257405,2.616964 -3.447157,2.616964 -0.175246,0 -0.137337,-3.917135 0.04887,-5.049971 0.107905,-0.656458 0.328527,-1.103302 0.7556,-1.530374 0.39004,-0.390041 0.603573,-0.502855 0.604265,-0.319247 5.94e-4,0.156172 0.08879,0.599764 0.196,0.985761 0.255019,0.918149 1.048597,1.245533 2.027613,0.836474 0.590455,-0.246708 0.889537,-0.763914 0.889537,-1.538286 0,-0.833462 -0.274845,-1.226796 -1.034074,-1.479873 l -0.813342,-0.271114 1.321486,-1.090023 c 1.129629,-0.931771 1.435155,-1.090024 2.104419,-1.090024 0.430613,0 0.968799,-0.130186 1.19597,-0.289303 0.361052,-0.25289 0.412332,-0.46911 0.407434,-1.7179 -0.0057,-1.460726 -0.21644,-1.929198 -0.807741,-1.795848 -0.155532,0.03508 -1.756061,1.383991 -3.556731,2.99759 l -3.273945,2.933815 0,-0.968298 0,-0.968298 0.841666,0 c 1.025956,0 1.699124,-0.47918 1.699124,-1.209484 0,-0.759888 -0.360885,-1.069039 -1.410468,-1.208271 l -0.938564,-0.124505 0,-3.714572 0,-3.7145724 0.81497,0.00121 c 1.038131,0.00155 10.342242,0.5200495 12.377257,0.6897633 0.846592,0.070603 1.645577,0.1940779 1.775522,0.2743885 0.187136,0.1156564 0.18804,4.3467806 0.0043,20.3481056 -0.26465,23.053637 -0.497093,35.609332 -0.662292,35.774531 -0.06264,0.06264 -0.95654,0.151165 -1.986448,0.196727 l -1.87256,0.08284 -5.050781,-5.068118 z M 49.736159,39.062137 c 0.456695,-0.456696 0.485988,-0.971431 0.09798,-1.721753 -0.329431,-0.637048 -0.807544,-0.840957 -1.540493,-0.656998 -0.878867,0.220581 -1.244519,1.718809 -0.615649,2.522569 0.302478,0.386598 1.619794,0.294548 2.05816,-0.143818 z m -2.220638,-3.665524 c 0.634302,-0.498943 0.59297,-1.102941 -0.10208,-1.491753 -0.416587,-0.233038 -0.600075,-0.239239 -1.088828,-0.03679 -0.940707,0.389654 -1.036786,1.391966 -0.167049,1.742691 0.628106,0.253285 0.797714,0.226539 1.357957,-0.214147 l 0,0 z m -1.075092,-4.25848 c 0.04776,-0.397769 -0.0382,-0.524617 -0.420557,-0.62058 -0.264323,-0.06634 -0.561366,-0.0707 -0.660097,-0.0097 -0.325424,0.201123 -0.38842,0.885698 -0.107366,1.166752 0.405934,0.405934 1.113211,0.08654 1.18802,-0.536494 l 0,6e-6 z M 55.82974,16.13621 c 0.517101,-0.362192 0.574195,-1.329439 0.108826,-1.843666 -0.449824,-0.49705 -1.85688,-0.477531 -2.367252,0.03284 -0.854232,0.854232 -0.195019,2.109335 1.10788,2.109335 0.398399,0 0.916145,-0.134329 1.150546,-0.29851 z"
     id="path5479" />
  <path
     style="opacity:0.67960008;fill:#f6d7d7;fill-opacity:0.62331836;fill-rule:nonzero;stroke:#000000;stroke-width:0.03681749;stroke-miterlimit:4;stroke-opacity:0.80097088;stroke-dasharray:none"
     d="m 43.677313,60.655885 c -0.06808,-0.177421 -0.06072,-2.172662 0.01636,-4.43387 0.159253,-4.671921 0.0016,-4.42436 1.823819,-2.863453 3.378641,2.894091 7.308057,6.673054 7.068108,6.797478 -0.267096,0.138501 -3.595827,0.473871 -6.919574,0.697148 -1.642023,0.110305 -1.879718,0.08672 -1.988709,-0.197303 z"
     id="path5481" />
  <path
     style="opacity:0.67960008;fill:#f6d7d7;fill-opacity:0.62331836;fill-rule:nonzero;stroke:#000000;stroke-width:0.03681749;stroke-miterlimit:4;stroke-opacity:0.80097088;stroke-dasharray:none"
     d="m 43.791668,47.421618 c 0,-0.333631 0.489583,-0.922249 1.768232,-2.125915 1.028732,-0.968405 1.801642,-1.564313 1.848118,-1.424885 0.04394,0.131811 -0.191654,0.462863 -0.523536,0.735672 -0.770746,0.63356 -0.778473,1.109947 -0.02119,1.30618 0.565058,0.146421 0.5384,0.171552 -1.124592,1.06015 -0.936854,0.500596 -1.758195,0.910175 -1.825203,0.910175 -0.06701,0 -0.121833,-0.20762 -0.121833,-0.461377 z"
     id="path5483" />
  <path
     style="opacity:0.67960008;fill:#f6d7d7;fill-opacity:0.62331836;fill-rule:nonzero;stroke:#000000;stroke-width:0.03681749;stroke-miterlimit:4;stroke-opacity:0.80097088;stroke-dasharray:none"
     d="M 6.8924156,55.601245 C 6.6373029,47.194139 6.3980505,32.652983 6.2727812,17.941434 L 6.1443717,2.8611014 6.6072132,2.9379027 c 0.2545628,0.042241 3.9576268,0.5532642 8.2290308,1.1356077 4.271405,0.5823434 7.950714,1.0986349 8.176243,1.1473144 0.399727,0.086279 0.412908,0.1959895 0.523445,4.3568362 0.374844,14.109915 0.375529,13.05813 -0.0084,12.913406 -0.192394,-0.07252 -1.720929,-0.875804 -3.396743,-1.785072 -3.17609,-1.723293 -3.536171,-1.828684 -6.684771,-1.956553 -0.291808,-0.01185 -0.335577,-0.223157 -0.335577,-1.62009 0,-1.181209 -0.0748,-1.668538 -0.282562,-1.840967 -0.155409,-0.128978 -0.337735,-0.528604 -0.405169,-0.888058 -0.162518,-0.866291 -0.768957,-1.609005 -1.313783,-1.609005 -0.241789,0 -0.666981,0.178845 -0.944871,0.397434 -0.7113973,0.559585 -0.7024806,1.704854 0.02065,2.652591 0.289248,0.379088 0.50693,0.775543 0.483736,0.88101 -0.264746,1.203847 -0.525419,3.775149 -0.404603,3.991036 0.10412,0.186052 0.647545,0.319112 1.644863,0.402751 0.819155,0.0687 1.812964,0.172849 2.208465,0.231447 l 0.719091,0.106541 0,0.95065 c 0,1.260788 0.579188,1.892007 1.736048,1.892007 0.635732,0 0.902182,-0.11507 1.332077,-0.575274 0.295562,-0.3164 0.610628,-0.574335 0.700148,-0.57319 0.299657,0.0038 4.570243,3.940919 4.634032,4.272148 0.04053,0.210479 -0.120818,0.396705 -0.453219,0.523083 -0.734456,0.279239 -3.150365,0.599264 -3.554829,0.470891 -0.187217,-0.05942 -1.611048,-1.049091 -3.164071,-2.199269 l -2.823677,-2.091236 -0.47554,0.37406 c -0.333862,0.262616 -0.77435,0.37406 -1.478487,0.37406 -1.3017975,0 -2.013457,0.508329 -2.013457,1.438183 0,1.298513 1.975771,1.955072 3.136291,1.042208 0.590265,-0.464303 0.38279,-0.564896 3.191715,1.547471 3.650663,2.745372 3.277443,2.562268 4.957232,2.432034 0.806659,-0.06254 1.83707,-0.244708 2.2898,-0.404815 0.629622,-0.222665 0.841854,-0.236073 0.90272,-0.05703 0.173111,0.509226 0.431377,13.087153 0.270777,13.187241 -0.09301,0.05797 -2.042384,0.389257 -4.331932,0.736198 -5.003757,0.758234 -5.506144,0.898946 -5.583652,1.563898 -0.05508,0.472512 -0.09442,0.485803 -1.246426,0.421089 -1.41018,-0.07922 -2.392031,0.331566 -2.788664,1.166719 -0.8280028,1.743445 2.171498,3.231941 4.015665,1.992768 0.565523,-0.380001 0.659289,-0.557267 0.710017,-1.342304 0.05735,-0.88752 0.07056,-0.904487 0.70422,-0.904487 0.577213,0 0.670365,0.07635 0.877394,0.719091 0.308818,0.958766 0.523394,1.198487 1.072774,1.198487 0.300994,0 0.517852,0.149544 0.625666,0.431455 0.180601,0.472236 0.716624,0.998779 1.167807,1.147154 0.477699,0.157094 1.287925,-0.379692 1.502593,-0.995489 0.176423,-0.506088 0.138855,-0.653965 -0.298052,-1.173199 -0.442511,-0.525896 -0.596432,-0.586446 -1.340354,-0.527279 -0.831741,0.06615 -0.839847,0.06087 -0.783765,-0.510507 0.05622,-0.572811 0.06797,-0.578332 1.494851,-0.702361 0.791001,-0.06876 2.054804,-0.179404 2.808452,-0.245885 l 1.370268,-0.12087 0.110639,2.546976 c 0.06085,1.400837 0.149355,3.855748 0.196675,5.455359 l 0.08604,2.908383 -0.895791,0.113378 c -2.078762,0.263105 -15.9677313,1.836046 -16.2121692,1.836046 -0.2162023,0 -0.291189,-0.794506 -0.3936402,-4.170731 z M 15.17182,44.752869 c 0.291172,-0.262092 0.433438,-0.611302 0.437554,-1.074031 0.0034,-0.377117 0.132791,-0.853169 0.287637,-1.057893 0.421413,-0.557158 0.347757,-1.042029 -0.178352,-1.174076 -0.840813,-0.211029 -1.357016,-0.02889 -1.418724,0.500594 -0.04183,0.358947 -0.267068,0.587607 -0.849987,0.86291 -1.050935,0.496342 -1.239764,1.049731 -0.612542,1.795142 0.711648,0.845746 1.503044,0.8957 2.334414,0.147354 l 0,0 z m -3.21898,-1.655412 c 0.154329,-0.09761 0.371162,-0.50026 0.481852,-0.894772 0.150286,-0.535643 0.332168,-0.75231 0.718198,-0.855551 0.28432,-0.07604 0.757815,-0.306666 1.052211,-0.512509 0.294395,-0.20584 0.761976,-0.428972 1.039069,-0.495847 1.036764,-0.250217 1.508348,-1.857352 0.84298,-2.872833 -0.17683,-0.269876 -0.465904,-0.523644 -0.642388,-0.56393 -0.538987,-0.123036 -1.306904,0.381732 -1.636087,1.075433 -0.246724,0.519932 -0.462034,0.686124 -1.02596,0.791919 -1.232578,0.231233 -1.781626,0.616168 -1.781626,1.249093 0,0.489976 -0.09484,0.588495 -0.731581,0.759951 -1.5280069,0.411449 -2.0603558,1.837655 -0.8508105,2.27939 0.6753975,0.24666 2.1698855,0.270047 2.5341425,0.03966 z m 9.006595,-0.565342 c 0.902626,-1.267621 -0.0015,-3.220252 -1.300146,-2.808063 -0.75751,0.240426 -1.074871,2.114676 -0.497621,2.938815 0.441767,0.630712 1.300004,0.568291 1.797767,-0.130752 z m -1.664822,-3.432986 c 0.405563,-0.348293 0.440321,-1.245407 0.06047,-1.560659 -0.15131,-0.125576 -0.559225,-0.20086 -0.906476,-0.167297 -1.134291,0.109632 -1.369924,1.493087 -0.343173,2.014847 0.465428,0.236514 0.624364,0.19817 1.189184,-0.286891 l 0,0 z"
     id="path5485" />
  <path
     style="opacity:0.67960008;fill:url(#linearGradient5495);fill-opacity:1;fill-rule:nonzero;stroke:#000000;stroke-width:0.03681749;stroke-miterlimit:4;stroke-opacity:0.80097088;stroke-dasharray:none"
     d="M 7.0923551,57.231186 C 6.830872,52.100084 6.1008079,3.2458513 6.2828922,3.0637671 6.3863905,2.9602688 22.992938,5.3389334 23.131042,5.4770379 23.281267,5.6272625 23.645957,15.792287 23.653128,20.029146 l 0.004,2.348002 -3.403701,-1.732259 C 16.920868,18.94885 16.813616,18.90978 15.123881,18.776283 l -1.72582,-0.136349 -0.199553,-1.629941 c -0.182652,-1.491894 -0.450897,-2.378408 -1.096359,-3.623329 -0.546948,-1.054911 -2.036457,-0.773616 -2.4441054,0.461571 -0.2144295,0.649728 -0.1874735,0.80048 0.3203854,1.791768 0.47939,0.935721 0.536903,1.212247 0.424523,2.041143 -0.285491,2.105746 -0.306089,2.781805 -0.09361,3.072388 0.151336,0.206963 0.838339,0.372328 2.22205,0.534854 l 2.002985,0.235265 0.212774,1.062167 c 0.271008,1.352869 0.348475,1.466909 1.146049,1.687129 0.812559,0.224359 1.352924,0.10373 2.135267,-0.476669 l 0.603492,-0.447714 0.738812,0.582606 c 1.011372,0.797542 3.711058,3.452712 3.711058,3.649867 0,0.08805 -0.194155,0.204174 -0.431455,0.258064 -3.203344,0.72746 -2.915093,0.79954 -6.201094,-1.550622 -1.565107,-1.119371 -2.949649,-2.07513 -3.076761,-2.123907 -0.127111,-0.04878 -0.432237,0.03909 -0.678058,0.195274 -0.24582,0.156177 -0.921547,0.343529 -1.501614,0.416335 -0.580068,0.07281 -1.2425425,0.251475 -1.4721671,0.39704 -0.8510407,0.539499 -0.6104436,1.978684 0.4118901,2.463814 0.834828,0.39615 1.2072,0.382428 2.109814,-0.07775 l 0.747113,-0.3809 1.546586,1.141839 c 4.246414,3.135111 4.258596,3.141794 5.652857,3.101425 0.694621,-0.02011 1.74987,-0.151007 2.344997,-0.290879 l 1.082049,-0.254311 0.111467,1.743805 c 0.10687,1.671876 0.210131,8.947901 0.150203,10.583621 l -0.0288,0.785987 -4.344966,0.71094 c -4.476073,0.732392 -5.31961,0.983477 -5.529892,1.646016 -0.104294,0.3286 -0.288758,0.385619 -1.247532,0.385619 -1.311212,0 -1.917291,0.193886 -2.473998,0.791442 -1.3159978,1.412558 0.868651,3.439254 3.068711,2.84684 1.008726,-0.271622 1.428693,-0.720089 1.584033,-1.69153 0.110305,-0.689811 0.191987,-0.796205 0.611261,-0.796205 0.390926,0 0.555038,0.165857 0.85383,0.86291 0.215803,0.503448 0.496317,0.86291 0.673393,0.86291 0.166929,0 0.697389,0.388309 1.1788,0.862909 0.481411,0.474601 1.044865,0.86291 1.25212,0.86291 0.459775,0 1.497873,-0.999217 1.497873,-1.441771 0,-0.176398 -0.178458,-0.571346 -0.396573,-0.87766 -0.337181,-0.473526 -0.525847,-0.556935 -1.259763,-0.556935 -0.784046,0 -0.857571,-0.03932 -0.801912,-0.428874 0.07104,-0.497241 0.519872,-0.603627 3.447631,-0.817199 l 1.852294,-0.135118 0.114856,1.217928 c 0.06317,0.669862 0.135695,3.070541 0.161164,5.334842 l 0.04631,4.116912 -7.862068,0.904038 c -4.324138,0.497222 -8.1321356,0.90975 -8.4622171,0.91673 L 7.2120627,59.580219 7.0923551,57.231186 z M 14.829795,45.105842 c 0.337391,-0.174471 0.62086,-0.526347 0.733776,-0.91085 0.101199,-0.3446 0.292663,-0.986868 0.425475,-1.427261 0.290873,-0.964503 0.182213,-1.324528 -0.435393,-1.442591 -0.629857,-0.120405 -1.234668,0.128491 -1.373251,0.565129 -0.06286,0.198063 -0.501907,0.633326 -0.975653,0.967253 -0.938114,0.661244 -1.029209,0.947634 -0.539265,1.695382 0.533548,0.814298 1.286772,1.00673 2.164311,0.552938 l 0,0 z m -2.390523,-2.656549 c 0.30921,-0.593107 0.680737,-0.885729 1.917578,-1.510325 1.688829,-0.852846 1.736537,-0.897957 2.015866,-1.906082 0.21179,-0.764369 0.04964,-1.425366 -0.479441,-1.954449 -0.525634,-0.525633 -1.07509,-0.372176 -1.921406,0.536625 -0.496992,0.533687 -1.149354,0.984011 -1.739222,1.200584 -0.74107,0.272087 -1.018254,0.498185 -1.289812,1.052092 -0.242666,0.494975 -0.542927,0.770554 -1.0061334,0.923427 -1.1853424,0.391198 -1.6330547,1.612825 -0.8052509,2.197205 0.311298,0.219758 0.7785751,0.289541 1.6778803,0.25057 1.231707,-0.05337 1.250954,-0.0627 1.629941,-0.789647 z m 8.154978,0.507053 c 0.678567,-0.46437 0.75554,-0.627167 0.758822,-1.604897 0.0036,-1.060969 -0.505457,-1.714039 -1.335964,-1.714039 -0.76542,0 -1.15395,0.615384 -1.15395,1.827717 0,0.980077 0.233298,1.491854 0.767031,1.682605 0.441759,0.15788 0.458569,0.154543 0.964061,-0.191386 l 0,0 z m -1.380097,-3.624553 c 0.355779,-0.249197 0.425606,-0.45275 0.378243,-1.102608 -0.05644,-0.774444 -0.07896,-0.798703 -0.795988,-0.857625 -1.313733,-0.107955 -1.951276,1.032999 -1.047639,1.874864 0.505089,0.470562 0.883933,0.492633 1.465384,0.08537 l 0,0 z"
     id="path5487" />
  <path
     style="opacity:0.67960008;fill:url(#linearGradient5515);fill-opacity:1;fill-rule:nonzero;stroke:#000000;stroke-width:0.03681749;stroke-miterlimit:4;stroke-opacity:0.80097088;stroke-dasharray:none"
     d="m 50.294833,54.865622 -4.999484,-5.002232 3.035375,-1.887897 c 5.012899,-3.117845 5.820902,-3.701119 6.120527,-4.418222 0.387882,-0.928334 0.338367,-1.742767 -0.134717,-2.215851 -0.345134,-0.345135 -0.544816,-0.386824 -1.344639,-0.280722 -1.221395,0.162024 -1.479042,0.270056 -1.72063,0.721467 -0.149894,0.28008 -0.124517,0.489106 0.101206,0.833602 0.426639,0.651133 0.388583,0.767398 -0.404305,1.235214 l -0.705571,0.416296 -0.53328,-0.570608 c -0.293304,-0.313836 -0.63758,-0.605375 -0.765057,-0.647869 -0.140569,-0.04686 0.124789,-0.515027 0.674321,-1.189703 0.663284,-0.814334 0.890373,-1.248224 0.847416,-1.619126 -0.113138,-0.976841 -0.770596,-0.769931 -3.517197,1.106904 -1.402245,0.958197 -2.614006,1.742175 -2.692802,1.742175 -0.164895,0 0.04648,-16.13066 0.222528,-16.981985 0.09469,-0.457897 0.68569,-0.978235 3.1451,-2.769065 1.665674,-1.212868 3.361725,-2.302636 3.769003,-2.421707 0.407277,-0.119071 1.344541,-0.378464 2.082808,-0.57643 1.275682,-0.342072 1.342305,-0.387902 1.342305,-0.92338 0,-0.544776 -0.04134,-0.570208 -1.247886,-0.76766 -0.703789,-0.115175 -1.510983,-0.391559 -1.8513,-0.633887 -1.116902,-0.795304 -2.004763,-0.559437 -2.644212,0.702454 -0.41967,0.828179 -1.986236,2.290158 -3.89243,3.632565 l -0.623213,0.438887 0,-2.369398 c 0,-2.078643 0.05295,-2.473216 0.431455,-3.215419 0.547139,-1.072861 0.831259,-1.157801 0.992783,-0.296804 0.165517,0.882283 0.832874,1.340226 1.712593,1.175189 0.811436,-0.152226 1.258342,-0.638066 1.40216,-1.524314 0.135365,-0.834157 -0.291478,-1.594764 -0.993898,-1.77106 -0.262333,-0.06584 -0.476969,-0.191605 -0.476969,-0.279474 0,-0.08787 0.496718,-0.541977 1.103817,-1.00913 0.744836,-0.573138 1.384057,-0.89584 1.965517,-0.992265 1.475701,-0.244718 1.532853,-0.315974 1.532853,-1.911122 0,-0.778665 -0.05238,-1.552247 -0.116395,-1.719074 -0.234071,-0.609979 -0.9638,-0.291991 -2.670216,1.16358 -0.945833,0.806795 -1.882174,1.604987 -2.080758,1.773759 -0.339861,0.288843 -0.353176,0.281528 -0.226775,-0.124595 0.279223,-0.897133 -0.161032,-1.337556 -1.665318,-1.665947 l -0.527334,-0.115119 0,-3.543865 0,-3.5438657 1.169478,0 c 1.725872,0 11.634363,0.576276 12.637082,0.7349703 l 0.86291,0.1365676 0.0649,3.9267208 c 0.0757,4.579748 -0.314156,38.660384 -0.531379,46.45285 -0.08164,2.928817 -0.207606,5.384284 -0.279915,5.456592 -0.07231,0.07231 -0.90536,0.178444 -1.851223,0.235855 l -1.719752,0.104381 -4.999484,-5.002233 z M 49.784098,39.10254 c 0.383733,-0.333447 0.439052,-1.211333 0.115112,-1.826768 -0.298506,-0.567114 -0.535103,-0.700097 -1.251741,-0.70355 -1.498365,-0.0072 -1.981902,2.606832 -0.541251,2.926059 0.54351,0.120435 1.285171,-0.05449 1.67788,-0.395741 l 0,0 z m -2.199942,-3.598794 c 0.515435,-0.361027 0.563774,-1.184705 0.09061,-1.54389 -0.789242,-0.59912 -2.157275,-0.07569 -2.157275,0.825404 0,0.917283 1.191465,1.331501 2.066668,0.718486 z m -1.308397,-3.813729 c 0.126477,-0.152393 0.201761,-0.475985 0.167298,-0.719091 -0.04836,-0.341124 -0.203401,-0.455613 -0.679292,-0.501608 -0.525175,-0.05076 -0.635006,0.01361 -0.740505,0.433946 -0.217026,0.864699 0.706408,1.444753 1.252499,0.786753 z m 9.698762,-15.485249 c 0.267314,-0.267314 0.396165,-1.084232 0.241152,-1.528904 -0.324758,-0.931602 -2.027059,-1.138533 -2.754406,-0.334824 -0.648557,0.716648 -0.200691,1.987102 0.753285,2.136828 0.397162,0.06234 1.613237,-0.126368 1.759969,-0.2731 l 0,0 z"
     id="path5507" />
</svg>
